<?xml version="1.0" encoding="utf-8"?>
<!-- Generator: Adobe Illustrator 16.0.0, SVG Export Plug-In . SVG Version: 6.00 Build 0)  -->
<!DOCTYPE svg PUBLIC "-//W3C//DTD SVG 1.1//EN" "http://www.w3.org/Graphics/SVG/1.1/DTD/svg11.dtd">
<svg version="1.1" id="Layer_2" xmlns="http://www.w3.org/2000/svg" xmlns:xlink="http://www.w3.org/1999/xlink" x="0px" y="0px"
	 width="113.5px" height="35px" viewBox="0 0 113.5 35" enable-background="new 0 0 113.5 35" xml:space="preserve">
<g>
	<path fill="#FFFFFF" d="M38.235,13.89h2.821v4.46h3.861v-4.46h2.79v11.725h-2.79v-4.822h-3.861v4.822h-2.821V13.89z"/>
	<path fill="#FFFFFF" d="M50.44,13.89h3.373c3.578,0,5.942,1.718,5.942,5.799c0,4.083-2.364,5.926-5.785,5.926h-3.53V13.89z
		 M53.64,23.346c1.891,0,3.231-0.867,3.231-3.657c0-2.789-1.34-3.562-3.231-3.562h-0.379v7.219H53.64z"/>
	<path fill="#FFFFFF" d="M60.802,26.623h8.572v1.561h-8.572V26.623z"/>
	<path fill="#FFFFFF" d="M70.955,13.89h4.099c2.426,0,4.366,0.646,4.366,2.899c0,1.041-0.585,2.176-1.529,2.537v0.064
		c1.183,0.314,2.081,1.197,2.081,2.757c0,2.396-2.035,3.467-4.586,3.467h-4.431V13.89z M74.944,18.538
		c1.195,0,1.732-0.52,1.732-1.324c0-0.834-0.553-1.181-1.732-1.181h-1.168v2.505H74.944z M75.18,23.456
		c1.355,0,2.049-0.487,2.049-1.496c0-0.963-0.678-1.34-2.049-1.34h-1.403v2.836H75.18z"/>
	<path fill="#FFFFFF" d="M81.302,23.109c0-1.892,1.48-2.916,4.979-3.294c-0.062-0.726-0.441-1.151-1.355-1.151
		c-0.708,0-1.449,0.285-2.348,0.788l-0.976-1.843c1.181-0.71,2.456-1.183,3.86-1.183c2.317,0,3.624,1.293,3.624,4.099v5.089h-2.284
		l-0.206-0.898h-0.062c-0.741,0.662-1.578,1.119-2.568,1.119C82.31,25.835,81.302,24.605,81.302,23.109z M86.28,22.951v-1.433
		c-1.748,0.235-2.314,0.739-2.314,1.37c0,0.52,0.377,0.772,0.959,0.772C85.492,23.661,85.872,23.393,86.28,22.951z"/>
	<path fill="#FFFFFF" d="M91.249,16.647h2.287l0.188,1.119h0.064c0.741-0.724,1.655-1.339,2.869-1.339
		c1.953,0,2.787,1.404,2.787,3.642v5.546h-2.806v-5.2c0-1.229-0.328-1.591-1.039-1.591c-0.629,0-1.009,0.282-1.561,0.804v5.987
		h-2.79V16.647z"/>
	<path fill="#FFFFFF" d="M101.626,13.023h2.729v7.029h0.062l2.729-3.405h3.041l-3.17,3.704l3.391,5.264h-3.041l-1.94-3.403
		l-1.07,1.214v2.189h-2.729V13.023z"/>
</g>
<g>
	<path fill-rule="evenodd" clip-rule="evenodd" fill="#FFFFFF" d="M30.037,25.293c0,0.243-0.057,0.396-0.284,0.529
		c-3.192,1.885-6.379,3.782-9.566,5.677c-1.246,0.74-2.492,1.48-3.736,2.223c-0.135,0.081-0.241,0.129-0.406,0.028
		c-5.328-3.229-7.775-4.689-6.983-4.212c-2.113-1.274-4.224-2.555-6.339-3.824c-0.18-0.107-0.24-0.23-0.239-0.432
		C2.502,20.021,2.517,14.76,2.522,9.5c0-0.278,0.063-0.45,0.321-0.601c1.967-1.15,3.925-2.317,5.883-3.481
		c2.371-1.41,4.743-2.817,7.105-4.24c0.337-0.203,0.575-0.258,0.954-0.025c2.81,1.726,5.642,3.416,8.467,5.118
		c1.523,0.918,3.044,1.84,4.571,2.751c0.189,0.113,0.253,0.245,0.252,0.458 M22.41,18.222c-0.236-0.553-0.389-1.091-0.676-1.545
		c-0.661-1.045-1.688-1.623-2.843-1.977c-0.255-0.078-0.359-0.176-0.389-0.453c-0.104-0.979-0.988-1.712-2-1.7
		c-0.996,0.012-1.857,0.758-1.955,1.723c-0.022,0.217-0.111,0.284-0.3,0.324c-0.663,0.144-1.285,0.387-1.798,0.845
		c-0.205,0.184-0.338,0.145-0.514-0.045c-0.421-0.452-0.963-0.669-1.573-0.714c-0.098-0.007-0.245,0.02-0.288,0.085
		c-0.042,0.063,0.008,0.2,0.041,0.297c0.094,0.28,0.205,0.555,0.3,0.835c0.063,0.183-0.02,0.299-0.187,0.382
		c-0.647,0.324-1.111,0.828-1.472,1.452c-0.124,0.214-0.32,0.409-0.527,0.547c-0.269,0.179-0.45,0.355-0.438,0.709
		c0.01,0.287-0.042,0.578-0.087,0.864c-0.035,0.224,0.046,0.368,0.207,0.521c1.099,1.035,2.41,1.663,3.858,2.024
		c0.196,0.05,0.271,0.128,0.262,0.319c-0.014,0.318-0.003,0.641-0.037,0.957c-0.029,0.271,0.069,0.356,0.329,0.359
		c0.861,0.012,0.875,0.026,1.327-0.692c0.167-0.265,0.351-0.327,0.651-0.331c1.579-0.022,3.157-0.075,4.734-0.12
		c0.193-0.006,0.386-0.036,0.589-0.057c0,0.16,0.004,0.279,0,0.397c-0.039,0.911-0.167,0.796,0.864,0.79
		c0.085,0,0.207-0.086,0.25-0.165c0.404-0.764,0.737-1.552,0.831-2.424c0.022-0.203,0.047-0.44,0.162-0.596
		c0.441-0.596,0.637-1.256,0.634-1.989c0-0.074,0.042-0.192,0.098-0.216c0.28-0.123,0.57-0.221,0.855-0.326
		c0.282,0.731,0.556,0.937,1.048,0.811c0.35-0.09,0.621-0.504,0.577-0.883c-0.048-0.42-0.289-0.531-1.164-0.533
		c0.048-0.263,0.141-0.484,0.426-0.548c0.143-0.032,0.341,0.003,0.306-0.223c-0.036-0.232-0.251-0.186-0.388-0.145
		c-0.164,0.05-0.349,0.136-0.447,0.266c-0.139,0.185-0.207,0.424-0.307,0.638c-0.035,0.076-0.056,0.193-0.115,0.218
		C22.961,18.029,22.66,18.13,22.41,18.222z M13.761,13.337c0.01-0.634-0.482-1.138-1.129-1.155
		c-0.637-0.018-1.157,0.476-1.172,1.111c-0.015,0.645,0.496,1.171,1.143,1.178C13.232,14.479,13.752,13.97,13.761,13.337z
		 M15.201,11.459c0-0.406-0.343-0.745-0.749-0.741c-0.407,0.004-0.745,0.349-0.738,0.753c0.005,0.387,0.349,0.726,0.735,0.728
		C14.862,12.2,15.201,11.866,15.201,11.459z"/>
	<path fill-rule="evenodd" clip-rule="evenodd" fill="#FFFFFF" d="M22.41,18.222c0.25-0.092,0.552-0.192,0.843-0.317
		c0.059-0.024,0.08-0.142,0.115-0.218c0.1-0.214,0.167-0.453,0.307-0.638c0.098-0.129,0.283-0.216,0.447-0.266
		c0.136-0.041,0.352-0.087,0.388,0.145c0.035,0.226-0.163,0.19-0.306,0.223c-0.285,0.063-0.378,0.285-0.426,0.548
		c0.875,0.002,1.116,0.113,1.164,0.533c0.043,0.379-0.227,0.793-0.577,0.883c-0.492,0.126-0.766-0.079-1.048-0.811
		c-0.285,0.105-0.576,0.203-0.855,0.326c-0.055,0.023-0.098,0.142-0.098,0.216c0.003,0.733-0.193,1.394-0.634,1.989
		c-0.114,0.155-0.14,0.393-0.162,0.596c-0.094,0.872-0.427,1.66-0.831,2.424c-0.042,0.079-0.164,0.165-0.25,0.165
		c-1.031,0.006-0.903,0.121-0.864-0.79c0.005-0.118,0-0.237,0-0.397c-0.203,0.021-0.396,0.051-0.589,0.057
		c-1.578,0.045-3.156,0.098-4.734,0.12c-0.3,0.004-0.484,0.066-0.651,0.331c-0.453,0.719-0.466,0.704-1.327,0.692
		c-0.26-0.003-0.358-0.088-0.329-0.359c0.034-0.316,0.023-0.639,0.037-0.957c0.009-0.191-0.065-0.27-0.262-0.319
		c-1.449-0.361-2.759-0.989-3.858-2.024c-0.161-0.152-0.242-0.297-0.207-0.521c0.045-0.286,0.097-0.577,0.087-0.864
		c-0.012-0.354,0.169-0.53,0.438-0.709c0.208-0.138,0.404-0.333,0.527-0.547c0.36-0.624,0.824-1.128,1.472-1.452
		c0.167-0.083,0.25-0.2,0.187-0.382c-0.095-0.28-0.206-0.555-0.3-0.835c-0.033-0.097-0.082-0.234-0.041-0.297
		c0.043-0.065,0.19-0.092,0.288-0.085c0.61,0.044,1.151,0.262,1.573,0.714c0.176,0.189,0.309,0.229,0.514,0.045
		c0.513-0.458,1.135-0.702,1.798-0.845c0.188-0.04,0.278-0.107,0.3-0.324c0.098-0.965,0.959-1.711,1.955-1.723
		c1.013-0.012,1.896,0.722,2,1.7c0.03,0.277,0.134,0.375,0.389,0.453c1.155,0.354,2.182,0.932,2.843,1.977
		C22.021,17.131,22.174,17.669,22.41,18.222z M10.649,15.113c0.059,0.311,0.11,0.583,0.162,0.855c0.055,0.287-0.06,0.477-0.321,0.6
		c-0.649,0.307-1.101,0.808-1.445,1.431c-0.107,0.192-0.268,0.386-0.454,0.497c-0.295,0.177-0.381,0.401-0.452,0.731
		c-0.13,0.611,0.093,0.975,0.563,1.326c0.979,0.735,2.065,1.214,3.245,1.488c0.319,0.074,0.47,0.208,0.46,0.535
		c-0.01,0.345-0.002,0.689-0.002,1.028c0.371,0.092,0.664,0.056,0.836-0.322c0.073-0.161,0.205-0.296,0.29-0.454
		c0.087-0.163,0.202-0.213,0.387-0.206c1.921,0.063,3.839,0.063,5.749-0.205c0.271-0.038,0.363,0.058,0.349,0.323
		c-0.016,0.294-0.004,0.59-0.004,0.991c0.209-0.107,0.417-0.144,0.481-0.26c0.332-0.606,0.596-1.244,0.666-1.942
		c0.044-0.443,0.196-0.829,0.432-1.221c0.217-0.36,0.348-0.817,0.374-1.24c0.142-2.296-1.561-3.613-3.466-4.065
		c-0.042,0.107-0.086,0.216-0.127,0.327c-0.013,0.035-0.016,0.074-0.026,0.126c0.072,0.009,0.129,0.02,0.187,0.022
		c0.392,0.017,0.393,0.016,0.395,0.418c0.001,0.25-0.009,0.501,0.002,0.75c0.009,0.213-0.063,0.311-0.289,0.31
		c-1.41-0.005-2.82-0.004-4.23-0.001c-0.198,0-0.298-0.074-0.287-0.284c0.008-0.18,0-0.359,0-0.54c0-0.584,0-0.583,0.551-0.674
		c0.008-0.001,0.015-0.011,0.043-0.034c-0.058-0.164-0.118-0.335-0.174-0.496c-0.832,0.112-1.507,0.482-2.115,0.99
		c-0.179,0.149-0.34,0.14-0.502-0.017c-0.086-0.083-0.176-0.164-0.262-0.247C11.379,15.381,11.055,15.184,10.649,15.113z
		 M16.521,16.129c0.917,0,1.621-0.693,1.625-1.601c0.005-0.894-0.718-1.604-1.628-1.6c-0.89,0.004-1.611,0.711-1.618,1.587
		C14.894,15.404,15.622,16.129,16.521,16.129z M18.534,15.905c-0.419-0.079-0.451-0.072-0.721,0.154
		c-0.734,0.613-1.812,0.637-2.536,0.017c-0.237-0.202-0.462-0.234-0.744-0.188c0,0.228,0,0.45,0,0.664c1.352,0,2.676,0,4,0
		C18.534,16.315,18.534,16.108,18.534,15.905z M23.706,18.159c0.075,0.252,0.075,0.506,0.345,0.586
		c0.192,0.057,0.368-0.021,0.443-0.211c0.043-0.106,0.072-0.299,0.015-0.352C24.279,17.976,24.012,18.084,23.706,18.159z"/>
	<path fill-rule="evenodd" clip-rule="evenodd" fill="#FFFFFF" d="M13.761,13.337c-0.009,0.632-0.529,1.141-1.158,1.135
		c-0.647-0.007-1.158-0.534-1.143-1.178c0.015-0.635,0.535-1.129,1.172-1.111C13.279,12.2,13.771,12.703,13.761,13.337z
		 M12.585,14.078c0.443,0.011,0.8-0.325,0.801-0.752c0-0.401-0.333-0.743-0.739-0.759c-0.444-0.017-0.802,0.31-0.81,0.74
		C11.829,13.729,12.157,14.067,12.585,14.078z"/>
	<path fill-rule="evenodd" clip-rule="evenodd" fill="#FFFFFF" d="M15.201,11.459c0,0.407-0.338,0.741-0.751,0.739
		c-0.387-0.001-0.73-0.34-0.735-0.728c-0.006-0.404,0.332-0.749,0.738-0.753C14.858,10.715,15.2,11.053,15.201,11.459z
		 M14.444,11.807c0.232-0.007,0.367-0.132,0.369-0.348c0.002-0.217-0.133-0.349-0.359-0.346c-0.209,0.002-0.337,0.117-0.345,0.328
		C14.101,11.666,14.227,11.786,14.444,11.807z"/>
	<path fill-rule="evenodd" clip-rule="evenodd" fill="#FFFFFF" d="M10.649,15.113c0.405,0.071,0.729,0.269,1.014,0.544
		c0.086,0.083,0.175,0.164,0.262,0.247c0.163,0.157,0.324,0.167,0.502,0.017c0.608-0.508,1.284-0.878,2.115-0.99
		c0.057,0.161,0.117,0.332,0.174,0.496c-0.029,0.022-0.036,0.032-0.043,0.034c-0.552,0.09-0.552,0.09-0.551,0.674
		c0,0.18,0.008,0.36,0,0.54c-0.011,0.209,0.089,0.284,0.287,0.284c1.41-0.002,2.82-0.004,4.23,0.001c0.227,0,0.298-0.097,0.289-0.31
		c-0.011-0.249-0.001-0.5-0.002-0.75c-0.002-0.403-0.003-0.402-0.395-0.418c-0.058-0.002-0.115-0.014-0.187-0.022
		c0.01-0.052,0.013-0.091,0.026-0.126c0.041-0.111,0.085-0.22,0.127-0.327c1.906,0.452,3.608,1.769,3.466,4.065
		c-0.026,0.423-0.157,0.88-0.374,1.24c-0.236,0.392-0.387,0.777-0.432,1.221c-0.07,0.698-0.334,1.336-0.666,1.942
		c-0.063,0.116-0.272,0.152-0.481,0.26c0-0.401-0.012-0.697,0.004-0.991c0.014-0.266-0.079-0.361-0.349-0.323
		c-1.909,0.268-3.828,0.268-5.749,0.205c-0.185-0.007-0.3,0.043-0.387,0.206c-0.085,0.158-0.216,0.293-0.29,0.454
		c-0.172,0.378-0.465,0.414-0.836,0.322c0-0.339-0.008-0.684,0.002-1.028c0.01-0.327-0.142-0.461-0.46-0.535
		c-1.18-0.274-2.267-0.753-3.245-1.488c-0.469-0.352-0.692-0.715-0.563-1.326c0.07-0.33,0.157-0.555,0.452-0.731
		c0.186-0.111,0.347-0.305,0.454-0.497c0.344-0.623,0.796-1.124,1.445-1.431c0.261-0.123,0.375-0.313,0.321-0.6
		C10.76,15.696,10.708,15.424,10.649,15.113z M11.934,21.302c-0.046-0.004-0.026,0.001-0.006-0.001
		c0.156-0.013,0.387,0.074,0.392-0.187c0.004-0.237-0.218-0.166-0.365-0.199c-0.532-0.119-1.078-0.204-1.587-0.389
		c-0.356-0.129-0.657-0.406-0.994-0.6c-0.081-0.046-0.206-0.017-0.31-0.021c0.022,0.103,0.027,0.215,0.073,0.306
		c0.032,0.065,0.117,0.105,0.181,0.153C10.076,20.929,10.925,21.24,11.934,21.302z M10.359,19.028
		c0.37-0.004,0.687-0.326,0.68-0.695c-0.006-0.374-0.318-0.674-0.7-0.674c-0.391,0.002-0.683,0.29-0.687,0.677
		C9.649,18.729,9.958,19.032,10.359,19.028z M21.476,18.876c-0.019-0.256-0.024-0.426-0.045-0.594
		c-0.056-0.447-0.269-0.793-0.694-0.97c-0.093-0.039-0.226,0.016-0.341,0.027c0.051,0.099,0.076,0.244,0.157,0.289
		c0.296,0.166,0.457,0.407,0.499,0.734c0.019,0.148,0,0.307,0.045,0.445c0.032,0.098,0.142,0.172,0.217,0.256
		C21.381,18.985,21.449,18.907,21.476,18.876z"/>
	<path fill-rule="evenodd" clip-rule="evenodd" fill="#FFFFFF" d="M16.521,16.129c-0.9,0-1.628-0.725-1.621-1.613
		c0.007-0.876,0.728-1.583,1.618-1.587c0.91-0.004,1.633,0.707,1.628,1.6C18.142,15.436,17.438,16.129,16.521,16.129z M16.554,13.46
		c-0.12,0.07-0.201,0.121-0.285,0.166c-0.363,0.195-0.398,0.676-0.034,0.869c0.272,0.144,0.216,0.321,0.191,0.509
		c-0.153-0.064-0.287-0.121-0.438-0.185c-0.079,0.507,0.464,0.461,0.515,0.755c0.136-0.104,0.255-0.202,0.381-0.291
		c0.332-0.231,0.323-0.722-0.043-0.878c-0.273-0.117-0.24-0.284-0.206-0.46c0.146,0.026,0.273,0.05,0.401,0.073
		c0.019-0.038,0.037-0.076,0.056-0.114C16.913,13.755,16.733,13.607,16.554,13.46z"/>
	<path fill-rule="evenodd" clip-rule="evenodd" fill="#FFFFFF" d="M18.534,15.905c0,0.204,0,0.41,0,0.647c-1.325,0-2.648,0-4,0
		c0-0.214,0-0.437,0-0.664c0.281-0.047,0.507-0.015,0.744,0.188c0.724,0.62,1.802,0.596,2.536-0.017
		C18.083,15.833,18.114,15.826,18.534,15.905z"/>
	<path fill-rule="evenodd" clip-rule="evenodd" fill="#FFFFFF" d="M23.706,18.159c0.306-0.075,0.574-0.184,0.803,0.023
		c0.057,0.053,0.028,0.245-0.015,0.352c-0.075,0.189-0.25,0.268-0.443,0.211C23.781,18.665,23.78,18.411,23.706,18.159z"/>
	<path fill-rule="evenodd" clip-rule="evenodd" fill="#FFFFFF" d="M12.585,14.078c-0.429-0.01-0.756-0.348-0.748-0.771
		c0.008-0.431,0.366-0.757,0.81-0.74c0.406,0.016,0.739,0.357,0.739,0.759C13.386,13.753,13.028,14.088,12.585,14.078z"/>
	<path fill-rule="evenodd" clip-rule="evenodd" fill="#FFFFFF" d="M14.444,11.807c-0.217-0.021-0.344-0.141-0.335-0.366
		c0.008-0.21,0.136-0.326,0.345-0.328c0.226-0.003,0.361,0.128,0.359,0.346C14.811,11.675,14.676,11.8,14.444,11.807z"/>
	<path fill-rule="evenodd" clip-rule="evenodd" fill="#FFFFFF" d="M11.934,21.302c-1.009-0.062-1.858-0.373-2.615-0.938
		c-0.064-0.048-0.149-0.088-0.181-0.153c-0.045-0.091-0.051-0.203-0.073-0.306c0.104,0.005,0.229-0.024,0.31,0.021
		c0.336,0.193,0.637,0.471,0.994,0.6c0.509,0.185,1.055,0.27,1.587,0.389c0.146,0.033,0.369-0.038,0.365,0.199
		c-0.005,0.261-0.236,0.174-0.392,0.187C11.908,21.303,11.888,21.298,11.934,21.302z"/>
	<path fill-rule="evenodd" clip-rule="evenodd" fill="#FFFFFF" d="M10.359,19.028c-0.4,0.004-0.71-0.299-0.706-0.692
		c0.004-0.387,0.296-0.675,0.687-0.677c0.382,0,0.693,0.3,0.7,0.674C11.045,18.702,10.729,19.024,10.359,19.028z M10.281,18.691
		c0.047-0.001,0.093-0.001,0.14-0.003c0.075-0.115,0.219-0.24,0.205-0.344c-0.016-0.113-0.167-0.271-0.28-0.293
		c-0.18-0.034-0.337,0.104-0.298,0.303C10.072,18.478,10.2,18.58,10.281,18.691z"/>
	<path fill-rule="evenodd" clip-rule="evenodd" fill="#FFFFFF" d="M21.476,18.876c-0.027,0.031-0.095,0.109-0.162,0.188
		c-0.075-0.084-0.185-0.158-0.217-0.256c-0.045-0.139-0.026-0.297-0.045-0.445c-0.042-0.327-0.203-0.568-0.499-0.734
		c-0.081-0.045-0.106-0.19-0.157-0.289c0.115-0.011,0.248-0.066,0.341-0.027c0.425,0.177,0.639,0.523,0.694,0.97
		C21.451,18.45,21.457,18.62,21.476,18.876z"/>
	<path fill-rule="evenodd" clip-rule="evenodd" fill="#FFFFFF" d="M16.554,13.46c0.179,0.147,0.358,0.295,0.538,0.444
		c-0.019,0.038-0.037,0.076-0.056,0.114c-0.128-0.023-0.255-0.046-0.401-0.073c-0.034,0.176-0.067,0.343,0.206,0.46
		c0.366,0.156,0.375,0.647,0.043,0.878c-0.126,0.088-0.245,0.186-0.381,0.291c-0.051-0.294-0.594-0.248-0.515-0.755
		c0.151,0.064,0.285,0.12,0.438,0.185c0.025-0.188,0.081-0.366-0.191-0.509c-0.365-0.192-0.33-0.673,0.034-0.869
		C16.353,13.581,16.434,13.53,16.554,13.46z"/>
	<path fill-rule="evenodd" clip-rule="evenodd" fill="#FFFFFF" d="M10.281,18.691c-0.081-0.111-0.209-0.214-0.233-0.337
		c-0.04-0.199,0.118-0.337,0.298-0.303c0.114,0.021,0.264,0.18,0.28,0.293c0.015,0.104-0.13,0.229-0.205,0.344
		C10.375,18.69,10.328,18.69,10.281,18.691z"/>
</g>
</svg>
