<?xml version="1.0" encoding="utf-8"?>
<!-- Generator: Adobe Illustrator 16.0.0, SVG Export Plug-In . SVG Version: 6.00 Build 0)  -->
<!DOCTYPE svg PUBLIC "-//W3C//DTD SVG 1.1//EN" "http://www.w3.org/Graphics/SVG/1.1/DTD/svg11.dtd">
<svg version="1.1" id="Layer_2" xmlns="http://www.w3.org/2000/svg" xmlns:xlink="http://www.w3.org/1999/xlink" x="0px" y="0px"
	 width="133.333px" height="35px" viewBox="0 0 133.333 35" enable-background="new 0 0 133.333 35" xml:space="preserve">
<path fill="#FFFFFF" d="M53.302,9.455h4.543v7.182h6.218V9.455h4.491v18.878h-4.491v-7.764h-6.218v7.764h-4.543V9.455z"/>
<path fill="#FFFFFF" d="M72.952,9.455h5.433c5.759,0,9.565,2.767,9.565,9.337c0,6.573-3.807,9.541-9.313,9.541h-5.685V9.455z
	 M78.104,24.682c3.045,0,5.204-1.398,5.204-5.89c0-4.491-2.159-5.734-5.204-5.734h-0.608v11.624H78.104z"/>
<path fill="#FFFFFF" d="M91.029,16.587h3.762c2.226,0,4.007,0.594,4.007,2.662c0,0.955-0.537,1.996-1.404,2.328v0.06
	c1.086,0.288,1.911,1.1,1.911,2.531c0,2.199-1.868,3.18-4.21,3.18h-4.065V16.587z M94.69,20.854c1.098,0,1.59-0.476,1.59-1.215
	c0-0.765-0.507-1.084-1.59-1.084h-1.072v2.299H94.69z M94.906,25.367c1.244,0,1.881-0.445,1.881-1.371
	c0-0.885-0.622-1.23-1.881-1.23h-1.288v2.602H94.906z"/>
<path fill="#FFFFFF" d="M100.524,25.05c0-1.735,1.358-2.676,4.569-3.023c-0.056-0.665-0.405-1.057-1.244-1.057
	c-0.649,0-1.329,0.261-2.154,0.723l-0.896-1.689c1.083-0.652,2.255-1.087,3.543-1.087c2.127,0,3.326,1.188,3.326,3.763v4.669h-2.096
	l-0.189-0.824h-0.058c-0.679,0.607-1.447,1.027-2.356,1.027C101.449,27.551,100.524,26.422,100.524,25.05z M105.094,24.905V23.59
	c-1.604,0.216-2.124,0.68-2.124,1.257c0,0.477,0.346,0.709,0.88,0.709C104.371,25.556,104.72,25.309,105.094,24.905z"/>
<path fill="#FFFFFF" d="M109.654,19.118h2.099l0.173,1.027h0.059c0.681-0.665,1.52-1.229,2.634-1.229
	c1.791,0,2.557,1.288,2.557,3.342v5.09h-2.574v-4.771c0-1.129-0.302-1.46-0.954-1.46c-0.577,0-0.926,0.259-1.433,0.737v5.493h-2.56
	V19.118z"/>
<path fill="#FFFFFF" d="M119.178,15.792h2.504v6.451h0.056l2.504-3.125h2.791l-2.909,3.398l3.112,4.831h-2.791l-1.781-3.122
	l-0.981,1.114v2.008h-2.504V15.792z"/>
<g>
	<path fill-rule="evenodd" clip-rule="evenodd" fill="#FFFF00" d="M12.921,34.244c-0.289-0.005-0.649-0.042-0.873-0.295
		c-0.225-0.253-0.215-0.619-0.188-0.872c0.053-0.492,0.062-1.004,0.069-1.499c0.004-0.286,0.009-0.572,0.022-0.857
		c0.015-0.318-0.047-0.434-0.461-0.54c-3.92-0.978-7.083-2.638-9.671-5.075c-0.374-0.354-0.703-0.783-0.589-1.513l0.03-0.188
		c0.101-0.629,0.204-1.279,0.183-1.904c-0.037-1.063,0.57-1.559,1.195-1.975c0.509-0.338,0.958-0.802,1.229-1.272
		c0.994-1.721,2.221-2.931,3.751-3.697c0.397-0.198,0.424-0.393,0.339-0.643c-0.115-0.337-0.239-0.671-0.362-1.006
		c-0.131-0.354-0.262-0.708-0.382-1.064c-0.112-0.331-0.237-0.702-0.073-0.954c0.206-0.311,0.742-0.326,0.848-0.326
		c1.759,0.125,3.126,0.747,4.156,1.851c0.21,0.227,0.363,0.328,0.495,0.328c0.115,0,0.256-0.076,0.43-0.232
		c1.173-1.048,2.625-1.732,4.57-2.152c0.38-0.081,0.505-0.172,0.547-0.584c0.252-2.49,2.488-4.465,5.09-4.496h0
		c2.683,0,4.943,1.949,5.208,4.438c0.06,0.556,0.215,0.734,0.79,0.91c3.354,1.03,5.704,2.667,7.183,5.005
		c0.499,0.791,0.833,1.664,1.187,2.588c0.133,0.348,0.269,0.702,0.416,1.06l0.266-0.096c0.5-0.179,1.05-0.375,1.585-0.604
		c0.01-0.018,0.053-0.14,0.079-0.212c0.025-0.072,0.05-0.143,0.079-0.204c0.076-0.163,0.145-0.332,0.213-0.5
		c0.156-0.386,0.318-0.785,0.574-1.125c0.302-0.399,0.838-0.627,1.234-0.747c0.146-0.044,0.338-0.094,0.531-0.094
		c0.413,0,0.686,0.238,0.749,0.654c0.034,0.22,0,0.4-0.102,0.535c-0.16,0.21-0.429,0.242-0.645,0.268
		c-0.069,0.008-0.138,0.016-0.203,0.031c-0.418,0.093-0.656,0.344-0.799,0.867c1.829,0.028,2.679,0.294,2.822,1.54
		c0.122,1.059-0.634,2.208-1.617,2.46c-0.246,0.063-0.465,0.093-0.67,0.093c-0.914,0-1.541-0.591-2.131-2.027l-0.31,0.112
		c-0.526,0.19-1.054,0.382-1.567,0.606c-0.026,0.027-0.093,0.191-0.092,0.305c0.009,1.936-0.521,3.598-1.62,5.081
		c-0.242,0.327-0.3,0.871-0.352,1.351c-0.258,2.399-1.251,4.521-2.086,6.102c-0.139,0.256-0.518,0.539-0.839,0.539
		c-0.291,0.002-1.14,0.02-1.29,0.02c-0.485,0-0.785-0.039-0.975-0.242c-0.23-0.244-0.208-0.601-0.164-1.31
		c0.013-0.196,0.027-0.423,0.038-0.684c0.008-0.188,0.006-0.379,0.003-0.596l0-0.101l-0.125,0.014
		c-0.365,0.044-0.722,0.086-1.078,0.097l-2.419,0.07c-3.054,0.09-6.211,0.183-9.318,0.229c-0.658,0.009-1.036,0.116-1.405,0.702
		c-0.995,1.579-1.205,1.842-2.77,1.842L12.921,34.244z M31.374,29.723c0.284,0,0.494,0.076,0.643,0.232
		c0.172,0.182,0.242,0.453,0.221,0.854c-0.026,0.487-0.021,0.98-0.015,1.555l0.003,0.499c0.06-0.025,0.119-0.049,0.176-0.071
		c0.251-0.1,0.488-0.193,0.548-0.305c0.96-1.754,1.475-3.253,1.622-4.717c0.106-1.064,0.457-2.059,1.104-3.13
		c0.501-0.836,0.826-1.915,0.89-2.96c0.429-6.931-5.897-9.181-8.188-9.765c0,0-0.236,0.612-0.238,0.617
		c0.063,0.008,0.122,0.015,0.181,0.018c1.109,0.046,1.211,0.155,1.216,1.286l-0.004,0.642c-0.005,0.403-0.01,0.806,0.008,1.206
		c0.01,0.226-0.002,0.552-0.219,0.779c-0.162,0.168-0.405,0.25-0.743,0.25c-1.774-0.007-3.544-0.009-5.313-0.009l-5.174,0.005
		c-0.346,0-0.589-0.083-0.751-0.253c-0.158-0.166-0.227-0.399-0.21-0.712c0.013-0.294,0.009-0.59,0.005-0.886l-0.004-0.438
		c-0.001-1.507,0.08-1.663,1.411-1.889l-0.287-0.817c-1.747,0.274-3.313,1.03-4.915,2.369c-0.255,0.214-0.515,0.322-0.771,0.322
		c-0.277,0-0.549-0.127-0.809-0.377c0,0-0.537-0.504-0.649-0.613c-0.63-0.611-1.294-1.006-2.022-1.201l0.331,1.748
		c0.153,0.803-0.161,1.395-0.934,1.759c-1.429,0.675-2.564,1.801-3.47,3.44c-0.315,0.568-0.758,1.051-1.214,1.325
		c-0.636,0.381-0.831,0.836-1.004,1.651c-0.272,1.28,0.092,2.132,1.299,3.035c2.33,1.748,4.93,2.94,7.949,3.645
		c0.678,0.158,1.367,0.47,1.334,1.578c-0.018,0.594-0.014,1.19-0.01,1.781l0.002,0.557c0.187,0.037,0.352,0.056,0.5,0.056
		c0.52,0,0.858-0.233,1.096-0.758c0.109-0.239,0.262-0.451,0.409-0.656c0.112-0.156,0.226-0.313,0.316-0.481
		c0.236-0.446,0.579-0.646,1.109-0.646c1.846,0.059,3.319,0.085,4.716,0.085c3.652,0,6.692-0.188,9.567-0.591
		C31.193,29.729,31.288,29.723,31.374,29.723z M41.469,19.741c0.124,0.52,0.207,0.796,0.589,0.91
		c0.077,0.022,0.153,0.034,0.227,0.034l0,0c0.261,0,0.463-0.146,0.567-0.41c0.094-0.233,0.119-0.544,0.084-0.615
		c-0.159-0.139-0.35-0.211-0.6-0.211c-0.257,0-0.55,0.077-0.861,0.159l-0.036,0.01C41.45,19.659,41.459,19.7,41.469,19.741z
		 M28.065,15.206v-1.147c-0.239-0.043-0.427-0.071-0.57-0.071c-0.258,0-0.383,0.083-0.806,0.436
		c-0.384,0.321-0.81,0.583-1.262,0.782H28.065z M21.25,15.206c-0.421-0.19-0.815-0.439-1.168-0.741
		c-0.366-0.313-0.726-0.452-1.166-0.452c-0.086,0-0.174,0.005-0.265,0.015v1.178H21.25z M23.322,6.726
		c-2.058,0.009-3.744,1.663-3.76,3.686c-0.008,0.988,0.373,1.921,1.074,2.628c0.715,0.721,1.671,1.118,2.692,1.118
		c2.143,0,3.767-1.598,3.777-3.718c0.005-0.987-0.372-1.914-1.063-2.608c-0.709-0.713-1.669-1.106-2.703-1.106v-0.25L23.322,6.726z"
		/>
	<path fill="#FFFF00" d="M23.337,5.526c2.485,0,4.642,1.808,4.898,4.214c0.074,0.686,0.332,0.929,0.965,1.123
		c2.863,0.879,5.406,2.309,7.045,4.9c0.711,1.126,1.091,2.459,1.676,3.83c0.621-0.228,1.368-0.477,2.089-0.786
		c0.146-0.061,0.198-0.352,0.286-0.54c0.248-0.53,0.415-1.123,0.76-1.58c0.242-0.321,0.702-0.535,1.107-0.658
		c0.135-0.041,0.301-0.083,0.458-0.083c0.235,0,0.449,0.097,0.502,0.441c0.087,0.561-0.403,0.472-0.757,0.552
		c-0.707,0.158-0.937,0.706-1.055,1.358c2.17,0.005,2.765,0.28,2.885,1.321c0.108,0.939-0.563,1.967-1.43,2.189
		c-0.219,0.056-0.421,0.085-0.608,0.085c-0.856,0-1.416-0.608-1.989-2.096c-0.707,0.262-1.426,0.504-2.12,0.809
		c-0.137,0.059-0.243,0.352-0.242,0.535c0.008,1.818-0.478,3.455-1.571,4.931c-0.283,0.383-0.346,0.974-0.4,1.477
		c-0.232,2.159-1.058,4.114-2.059,6.007c-0.105,0.193-0.406,0.406-0.618,0.406c-0.554,0.003-0.974,0.02-1.289,0.02
		c-1.139,0-0.927-0.208-0.852-1.975c0.012-0.295,0.001-0.591,0.001-0.987c-0.502,0.054-0.98,0.126-1.459,0.141
		c-3.91,0.111-7.821,0.241-11.733,0.3c-0.744,0.01-1.2,0.164-1.613,0.818c-0.977,1.551-1.129,1.726-2.559,1.726
		c-0.213,0-0.454-0.004-0.73-0.008c-0.645-0.01-0.887-0.218-0.816-0.891c0.085-0.784,0.057-1.583,0.092-2.372
		c0.022-0.474-0.162-0.668-0.649-0.793c-3.59-0.896-6.838-2.449-9.562-5.015c-0.398-0.378-0.6-0.736-0.513-1.293
		c0.111-0.706,0.24-1.428,0.216-2.14c-0.03-0.877,0.418-1.314,1.084-1.758c0.514-0.341,1.001-0.825,1.307-1.355
		c0.893-1.546,2.042-2.795,3.647-3.599c0.415-0.207,0.618-0.495,0.463-0.947c-0.236-0.693-0.51-1.376-0.744-2.069
		c-0.081-0.241-0.203-0.58-0.1-0.737c0.096-0.145,0.402-0.213,0.639-0.213c0.026,0,0.051,0.001,0.075,0.002
		c1.511,0.11,2.853,0.649,3.897,1.769c0.242,0.261,0.452,0.407,0.678,0.407c0.18,0,0.371-0.093,0.597-0.296
		c1.271-1.136,2.812-1.739,4.456-2.094c0.467-0.099,0.688-0.265,0.743-0.804c0.242-2.392,2.377-4.241,4.844-4.271
		C23.297,5.527,23.317,5.526,23.337,5.526 M23.329,14.408c2.271,0,4.016-1.718,4.027-3.966c0.012-2.208-1.769-3.966-4.016-3.966
		c-0.006,0-0.012,0-0.019,0c-2.206,0.01-3.992,1.763-4.009,3.934C19.294,12.611,21.099,14.408,23.329,14.408 M12.572,14.155
		c-0.215,0-0.424-0.104-0.635-0.307c-0.214-0.207-0.436-0.405-0.649-0.612c-0.704-0.683-1.508-1.172-2.512-1.348
		c0.146,0.771,0.274,1.444,0.401,2.12c0.135,0.71-0.149,1.182-0.795,1.487c-1.608,0.76-2.729,2.001-3.582,3.545
		c-0.265,0.478-0.665,0.956-1.124,1.232c-0.731,0.438-0.945,0.994-1.12,1.813c-0.322,1.516,0.231,2.416,1.394,3.287
		c2.425,1.819,5.119,3.006,8.042,3.688c0.79,0.185,1.165,0.514,1.141,1.327c-0.025,0.852-0.006,1.708-0.006,2.546
		c0.267,0.066,0.517,0.105,0.749,0.105c0.567,0,1.021-0.237,1.323-0.904c0.182-0.396,0.507-0.73,0.718-1.123
		c0.204-0.385,0.471-0.514,0.889-0.514c0.023,0,0.047,0,0.071,0.001c1.549,0.05,3.098,0.084,4.645,0.084
		c3.208,0,6.41-0.146,9.602-0.593c0.092-0.013,0.175-0.019,0.251-0.019c0.477,0,0.644,0.254,0.614,0.822
		c-0.039,0.726-0.009,1.462-0.009,2.454c0.518-0.267,1.034-0.354,1.192-0.644c0.821-1.501,1.478-3.084,1.65-4.812
		c0.11-1.099,0.485-2.058,1.07-3.025c0.537-0.896,0.861-2.028,0.926-3.073c0.352-5.691-3.868-8.956-8.591-10.075
		c-0.103,0.265-0.213,0.536-0.314,0.811c-0.031,0.087-0.039,0.184-0.064,0.313c0.178,0.021,0.321,0.049,0.463,0.056
		c0.971,0.041,0.973,0.039,0.978,1.037c0.002,0.619-0.023,1.241,0.005,1.858c0.023,0.527-0.154,0.769-0.713,0.769
		c-0.001,0-0.002,0-0.003,0c-1.769-0.007-3.539-0.009-5.308-0.009c-1.726,0-3.45,0.002-5.176,0.005c-0.002,0-0.004,0-0.006,0
		c-0.488,0-0.732-0.186-0.706-0.703c0.021-0.445,0.001-0.891,0.001-1.337c-0.001-1.447-0.001-1.446,1.366-1.67
		c0.019-0.003,0.036-0.028,0.107-0.083c-0.143-0.407-0.292-0.832-0.432-1.229c-2.061,0.277-3.736,1.194-5.242,2.454
		C12.97,14.068,12.769,14.155,12.572,14.155 M23.321,15.4c-1.101,0-2.194-0.37-3.077-1.125c-0.436-0.372-0.856-0.512-1.328-0.512
		c-0.165,0-0.335,0.017-0.515,0.047c0,0.564,0,1.115,0,1.646c3.351,0,6.631,0,9.914,0c0-0.588,0-1.1,0-1.605
		c-0.374-0.07-0.623-0.113-0.82-0.113c-0.352,0-0.538,0.136-0.966,0.494C25.604,15.004,24.459,15.4,23.321,15.4 M42.285,20.936
		c0.354,0,0.653-0.199,0.8-0.568c0.106-0.264,0.179-0.74,0.038-0.871c-0.244-0.221-0.506-0.297-0.786-0.297
		c-0.37,0-0.771,0.133-1.203,0.239c0.185,0.624,0.186,1.254,0.854,1.452C42.089,20.921,42.188,20.936,42.285,20.936 M23.337,5.026
		l-0.065,0c-2.728,0.032-5.071,2.106-5.336,4.72c-0.028,0.28-0.048,0.301-0.349,0.365c-1.99,0.431-3.478,1.133-4.685,2.21
		c-0.186,0.167-0.263,0.169-0.264,0.169c-0.003,0-0.084-0.002-0.311-0.247c-1.075-1.153-2.498-1.802-4.228-1.928
		c-0.038-0.003-0.074-0.004-0.112-0.004c-0.18,0-0.787,0.031-1.056,0.437c-0.233,0.357-0.08,0.81,0.032,1.14
		c0.132,0.393,0.264,0.749,0.396,1.105c0.123,0.332,0.246,0.664,0.36,0.999c0.044,0.128,0.068,0.198-0.213,0.339
		c-1.576,0.79-2.837,2.031-3.857,3.796C3.397,18.566,2.978,19,2.5,19.316c-0.654,0.437-1.349,1.001-1.307,2.192
		c0.02,0.601-0.082,1.238-0.18,1.856l-0.03,0.188c-0.133,0.853,0.285,1.374,0.663,1.733c2.621,2.469,5.821,4.148,9.785,5.138
		c0.28,0.072,0.28,0.08,0.271,0.284c-0.013,0.289-0.018,0.577-0.022,0.866c-0.008,0.512-0.016,0.995-0.068,1.476
		c-0.032,0.301-0.041,0.738,0.25,1.065c0.292,0.33,0.743,0.374,1.056,0.379l0.114,0.002c0.232,0.003,0.438,0.006,0.624,0.006
		c1.689,0,1.963-0.343,2.981-1.959c0.284-0.45,0.542-0.576,1.196-0.585c3.11-0.047,6.269-0.14,9.323-0.229l2.418-0.07
		c0.32-0.01,0.639-0.044,0.949-0.08c0.001,0.143,0,0.274-0.005,0.406c-0.011,0.258-0.025,0.483-0.038,0.679
		c-0.047,0.756-0.073,1.173,0.231,1.496c0.278,0.296,0.688,0.32,1.158,0.32c0.151,0,0.326-0.004,0.527-0.008
		c0.221-0.005,0.474-0.01,0.765-0.012c0.426,0,0.88-0.347,1.055-0.668c0.849-1.604,1.854-3.754,2.116-6.191
		c0.046-0.43,0.104-0.96,0.305-1.233c1.132-1.528,1.678-3.239,1.669-5.229c0-0.026,0.013-0.075,0.027-0.112
		c0.48-0.206,0.981-0.388,1.467-0.563l0.086-0.031c0.463,1.066,1.094,1.961,2.27,1.961c0.227,0,0.466-0.033,0.731-0.101
		c1.116-0.286,1.941-1.536,1.804-2.73c-0.164-1.43-1.207-1.706-2.715-1.755c0.125-0.243,0.288-0.333,0.498-0.38
		c0.057-0.013,0.118-0.019,0.178-0.026c0.249-0.03,0.59-0.07,0.814-0.365c0.145-0.191,0.195-0.435,0.15-0.726
		c-0.083-0.541-0.455-0.864-0.996-0.864c-0.226,0-0.441,0.056-0.603,0.104c-0.434,0.132-1.021,0.383-1.362,0.836
		c-0.276,0.367-0.444,0.781-0.606,1.182c-0.066,0.165-0.133,0.329-0.207,0.488c-0.032,0.069-0.061,0.147-0.089,0.227
		c-0.011,0.032-0.026,0.074-0.039,0.107c-0.5,0.21-1.015,0.394-1.473,0.558l-0.041,0.015c-0.113-0.28-0.219-0.559-0.324-0.832
		c-0.358-0.937-0.696-1.821-1.209-2.633c-1.513-2.391-3.907-4.063-7.321-5.111c-0.479-0.146-0.565-0.244-0.614-0.698
		C28.454,7.074,26.083,5.026,23.337,5.026L23.337,5.026z M23.329,13.908c-0.954,0-1.847-0.371-2.515-1.044
		c-0.653-0.659-1.009-1.529-1.001-2.45c0.015-1.888,1.589-3.43,3.511-3.438c0.983,0,1.88,0.367,2.542,1.032
		c0.644,0.647,0.995,1.51,0.99,2.431C26.846,12.417,25.33,13.908,23.329,13.908L23.329,13.908z M12.572,14.655
		c0.316,0,0.629-0.128,0.931-0.381c1.501-1.255,2.969-1.986,4.587-2.279l0.121,0.343c-1.196,0.24-1.33,0.558-1.329,2.082
		c0,0.147,0.002,0.294,0.004,0.441c0.004,0.291,0.008,0.582-0.005,0.872c-0.019,0.378,0.075,0.68,0.279,0.895
		c0.211,0.223,0.515,0.331,0.926,0.331c1.732-0.003,3.457-0.005,5.182-0.005c1.769,0,3.538,0.002,5.306,0.009
		c0.416,0,0.718-0.107,0.929-0.328c0.316-0.331,0.296-0.806,0.289-0.962c-0.018-0.392-0.013-0.799-0.008-1.193
		c0.002-0.215,0.005-0.431,0.004-0.646c-0.006-1.213-0.192-1.462-1.295-1.527c0.012-0.031,0.025-0.063,0.037-0.095
		c2.392,0.65,8.192,2.913,7.788,9.451c-0.062,1.007-0.374,2.044-0.855,2.848c-0.667,1.103-1.028,2.131-1.139,3.232
		c-0.143,1.43-0.649,2.898-1.591,4.621c-0.028,0.029-0.139,0.078-0.258,0.128c0-0.045-0.001-0.089-0.001-0.132
		c-0.006-0.57-0.011-1.063,0.015-1.54c0.016-0.298,0.003-0.729-0.29-1.038c-0.195-0.206-0.473-0.311-0.824-0.311
		c-0.096,0-0.202,0.007-0.319,0.023c-2.864,0.401-5.893,0.588-9.534,0.588c-1.393,0-2.864-0.026-4.628-0.084l-0.087-0.001
		c-0.626,0-1.048,0.247-1.331,0.779c-0.079,0.147-0.185,0.295-0.298,0.452c-0.154,0.215-0.313,0.437-0.433,0.697
		c-0.23,0.509-0.514,0.612-0.869,0.612c-0.077,0-0.16-0.006-0.25-0.018c0-0.115-0.001-0.23-0.002-0.347
		c-0.004-0.588-0.008-1.182,0.01-1.772c0.038-1.311-0.854-1.671-1.527-1.829c-2.985-0.695-5.555-1.873-7.856-3.601
		c-1.145-0.856-1.459-1.585-1.205-2.783c0.161-0.758,0.328-1.153,0.887-1.488c0.493-0.297,0.968-0.813,1.304-1.418
		c0.88-1.593,1.979-2.684,3.359-3.336c1.106-0.522,1.194-1.394,1.072-2.033l-0.252-1.334c0.537,0.206,1.033,0.538,1.524,1.014
		c0.113,0.11,0.229,0.218,0.345,0.326c0.102,0.095,0.204,0.19,0.305,0.287C11.897,14.505,12.228,14.655,12.572,14.655L12.572,14.655
		z M26.397,14.956c0.156-0.105,0.307-0.218,0.452-0.34c0.416-0.348,0.484-0.378,0.646-0.378c0.083,0,0.191,0.012,0.32,0.032v0.686
		H26.397L26.397,14.956z M18.901,14.263c0.005,0,0.01,0,0.015,0c0.381,0,0.682,0.117,1.003,0.392
		c0.125,0.106,0.254,0.207,0.388,0.301h-1.406V14.263L18.901,14.263z M41.74,19.798c0.219-0.055,0.423-0.099,0.596-0.099
		c0.146,0,0.26,0.031,0.365,0.101c-0.003,0.098-0.031,0.258-0.08,0.38c-0.068,0.173-0.178,0.256-0.336,0.256
		c-0.049,0-0.102-0.009-0.157-0.024C41.912,20.347,41.846,20.224,41.74,19.798L41.74,19.798z"/>
</g>
<g>
	<path fill-rule="evenodd" clip-rule="evenodd" fill="#FFFF00" d="M13.615,10.551c-0.845-0.009-1.631-0.345-2.213-0.947
		c-0.579-0.599-0.887-1.391-0.868-2.229c0.039-1.682,1.389-2.999,3.072-2.999c1.821,0.046,3.158,1.415,3.131,3.116
		c-0.025,1.687-1.412,3.059-3.091,3.059C13.646,10.551,13.616,10.551,13.615,10.551z M13.646,5.827c-0.938,0-1.657,0.684-1.675,1.59
		c-0.019,0.907,0.688,1.634,1.608,1.656c0,0,0.001,0,0.001,0c0.987,0,1.727-0.709,1.728-1.615c0-0.865-0.713-1.597-1.59-1.63
		l-0.073-0.251V5.827z"/>
	<path fill="#FFFF00" d="M13.606,4.626c0.027,0,0.055,0,0.083,0.001c1.604,0.042,2.823,1.29,2.799,2.861
		c-0.023,1.558-1.295,2.813-2.841,2.813c-0.01,0-0.019,0-0.029,0c-1.604-0.017-2.871-1.323-2.833-2.92
		C10.821,5.834,12.065,4.626,13.606,4.626 M13.625,9.324c1.074,0,1.933-0.822,1.935-1.865c0-0.995-0.824-1.842-1.831-1.88
		c-0.028-0.001-0.055-0.001-0.083-0.001c-1.063,0-1.905,0.795-1.925,1.835c-0.022,1.048,0.79,1.886,1.853,1.911
		C13.591,9.324,13.608,9.324,13.625,9.324 M13.606,4.126L13.606,4.126c-1.82,0-3.279,1.425-3.322,3.243
		c-0.021,0.905,0.312,1.761,0.938,2.408c0.629,0.65,1.478,1.014,2.39,1.023c1.85,0,3.349-1.482,3.375-3.305
		c0.028-1.84-1.415-3.319-3.286-3.369L13.606,4.126L13.606,4.126z M13.625,8.824l-0.039,0c-0.782-0.019-1.381-0.634-1.365-1.401
		c0.015-0.768,0.627-1.346,1.425-1.346l0.063,0.001c0.732,0.028,1.35,0.661,1.35,1.381C15.058,8.224,14.428,8.824,13.625,8.824
		L13.625,8.824z"/>
</g>
<g>
	<path fill-rule="evenodd" clip-rule="evenodd" fill="#FFFF00" d="M18.192,4.917c-1.088-0.004-2.056-0.961-2.071-2.049
		c-0.009-0.549,0.204-1.075,0.599-1.479c0.397-0.407,0.922-0.635,1.479-0.64c1.149,0,2.106,0.956,2.107,2.086
		c0,1.148-0.944,2.083-2.105,2.083C18.2,4.917,18.192,4.917,18.192,4.917z M18.209,2.227c-0.395,0.004-0.594,0.191-0.609,0.572
		c-0.01,0.252,0.042,0.594,0.604,0.647c0.411-0.014,0.637-0.221,0.641-0.615c0.002-0.192-0.049-0.341-0.15-0.443
		c-0.104-0.105-0.267-0.161-0.471-0.161v-0.25L18.209,2.227z"/>
	<path fill="#FFFF00" d="M18.215,0.998c1,0,1.839,0.835,1.84,1.837c0,1.006-0.834,1.832-1.855,1.832c-0.002,0-0.005,0-0.007,0
		c-0.958-0.003-1.809-0.843-1.822-1.803c-0.016-1.002,0.822-1.856,1.83-1.866C18.205,0.998,18.21,0.998,18.215,0.998 M18.181,3.695
		c0.575-0.017,0.909-0.327,0.915-0.861c0.005-0.533-0.323-0.857-0.871-0.857c-0.006,0-0.012,0-0.019,0
		c-0.518,0.005-0.835,0.291-0.855,0.812C17.329,3.345,17.643,3.643,18.181,3.695 M18.215,0.498c-0.001,0-0.018,0-0.019,0
		c-0.625,0.006-1.212,0.26-1.656,0.716c-0.441,0.453-0.679,1.042-0.669,1.658c0.017,1.239,1.08,2.291,2.32,2.295
		c1.308,0,2.364-1.046,2.364-2.332C20.554,1.567,19.482,0.498,18.215,0.498L18.215,0.498z M18.197,3.194
		c-0.304-0.037-0.356-0.16-0.347-0.386c0.008-0.212,0.068-0.328,0.361-0.331h0c0.147,0,0.251,0.031,0.307,0.086
		c0.065,0.066,0.079,0.181,0.078,0.266C18.594,3.002,18.561,3.174,18.197,3.194L18.197,3.194z"/>
</g>
<g>
	<path fill-rule="evenodd" clip-rule="evenodd" fill="#FFFF00" d="M12.032,27.47c-0.003,0-0.05,0.002-0.087,0.003l0,0.005
		c0-0.001-0.067-0.005-0.074-0.006c-2.501-0.172-4.633-0.945-6.54-2.367c-0.042-0.031-0.084-0.06-0.128-0.088
		c-0.146-0.097-0.311-0.205-0.397-0.388c-0.094-0.187-0.128-0.394-0.161-0.595c-0.012-0.072-0.023-0.145-0.039-0.215
		c-0.016-0.075,0.003-0.154,0.053-0.214c0.047-0.057,0.118-0.089,0.191-0.089c0.003,0,0.369-0.014,0.437-0.014
		c0.121,0,0.3,0.011,0.456,0.101c0.313,0.18,0.613,0.389,0.914,0.597c0.505,0.35,0.981,0.68,1.508,0.87
		c0.921,0.332,1.916,0.538,2.878,0.737c0.343,0.07,0.685,0.142,1.025,0.218c0.079,0.018,0.167,0.02,0.255,0.023
		c0.278,0.011,0.856,0.033,0.844,0.719c-0.007,0.327-0.143,0.717-0.756,0.717C12.344,27.484,12.032,27.47,12.032,27.47z"/>
	<path fill="#FFFF00" d="M5.287,23.753c0.123,0,0.238,0.014,0.331,0.067c0.834,0.479,1.579,1.166,2.462,1.485
		c1.262,0.455,2.615,0.668,3.933,0.964c0.363,0.082,0.915-0.097,0.904,0.493c-0.008,0.406-0.239,0.472-0.506,0.472
		c-0.125,0-0.258-0.015-0.379-0.015c-0.03,0-0.059,0.001-0.087,0.003c-0.01,0.001-0.021,0.001-0.03,0.002
		c-0.013-0.001-0.02-0.002-0.023-0.002c-0.001,0-0.002,0-0.002,0c-2.47-0.165-4.553-0.933-6.411-2.318
		c-0.159-0.121-0.371-0.218-0.449-0.383c-0.112-0.223-0.126-0.503-0.18-0.755c0.017,0.001,0.035,0.001,0.052,0.001
		C5.028,23.768,5.162,23.753,5.287,23.753 M11.891,27.223c0.005,0.001,0.009,0.001,0.014,0.001
		C11.896,27.224,11.89,27.224,11.891,27.223 M11.905,27.224c0.003,0,0.005,0.001,0.009,0.001c0,0,0.001,0,0.002,0
		c0.011,0,0.025,0.001,0.044,0.003C11.941,27.227,11.923,27.226,11.905,27.224 M5.287,23.253c-0.072,0-0.146,0.004-0.22,0.008
		c-0.056,0.004-0.111,0.007-0.164,0.007c-0.006,0-0.013,0-0.019,0c-0.148,0-0.304,0.064-0.399,0.178
		c-0.099,0.118-0.155,0.275-0.123,0.427c0.014,0.065,0.025,0.134,0.036,0.202c0.034,0.21,0.072,0.446,0.187,0.673
		c0.112,0.234,0.325,0.375,0.48,0.478c0.039,0.025,0.077,0.051,0.112,0.077c1.958,1.46,4.142,2.25,6.681,2.42
		c0.002,0,0.004,0.001,0.007,0.001c0.004,0,0.008,0,0.012,0.001l0.052,0.003c0.011,0.001,0.021,0.001,0.032,0.001
		c0.029,0,0.057-0.003,0.084-0.007c0.061,0,0.103,0.003,0.146,0.005c0.074,0.005,0.148,0.009,0.22,0.009c0.89,0,1-0.673,1.006-0.962
		c0.017-0.931-0.812-0.963-1.084-0.974c-0.072-0.003-0.145-0.003-0.209-0.017c-0.342-0.077-0.686-0.148-1.03-0.22
		c-0.953-0.197-1.939-0.401-2.844-0.728c-0.496-0.179-0.959-0.5-1.45-0.841c-0.298-0.207-0.607-0.421-0.933-0.607
		C5.66,23.268,5.437,23.253,5.287,23.253L5.287,23.253z"/>
</g>
<g>
	<path fill-rule="evenodd" clip-rule="evenodd" fill="#FFFF00" d="M8.039,21.844c-0.55,0-1.058-0.206-1.429-0.581
		c-0.363-0.366-0.56-0.859-0.554-1.39c0.011-1.091,0.85-1.918,1.95-1.924c1.078,0,1.967,0.859,1.985,1.916
		c0.008,0.5-0.196,1.002-0.56,1.376c-0.367,0.378-0.868,0.597-1.373,0.603C8.058,21.844,8.04,21.844,8.039,21.844z M7.888,19.409
		c-0.117,0-0.222,0.047-0.29,0.128c-0.071,0.087-0.094,0.203-0.068,0.336c0.028,0.146,0.173,0.31,0.313,0.468
		c0.048,0.055,0.096,0.109,0.142,0.164l0.095-0.002c0.044-0.059,0.091-0.118,0.139-0.177c0.085-0.104,0.262-0.322,0.252-0.393
		c-0.024-0.175-0.32-0.483-0.494-0.517L7.888,19.409z"/>
	<path fill="#FFFF00" d="M8.008,18.199c0.946,0,1.718,0.742,1.734,1.67c0.016,0.915-0.769,1.715-1.686,1.725
		c-0.006,0-0.012,0-0.017,0c-0.984,0-1.743-0.748-1.733-1.718C6.316,18.918,7.04,18.204,8.008,18.199 M7.864,20.757
		c0.116-0.002,0.231-0.002,0.347-0.007c0.185-0.286,0.543-0.596,0.507-0.852c-0.04-0.281-0.413-0.673-0.694-0.727
		c-0.046-0.009-0.091-0.013-0.136-0.013c-0.386,0-0.69,0.32-0.603,0.763C7.345,20.228,7.663,20.481,7.864,20.757 M8.008,17.699
		c-0.001,0-0.001,0-0.002,0c-1.241,0.006-2.187,0.939-2.199,2.172c-0.006,0.597,0.216,1.153,0.626,1.567
		c0.418,0.423,0.989,0.655,1.606,0.655c0.594-0.006,1.159-0.253,1.572-0.678c0.411-0.422,0.641-0.989,0.631-1.556
		C10.222,18.669,9.22,17.699,8.008,17.699L8.008,17.699z M8.024,20.169c-0.1-0.114-0.233-0.267-0.249-0.343
		c-0.007-0.034-0.013-0.095,0.016-0.13c0.02-0.023,0.054-0.037,0.096-0.037c0.11,0.026,0.261,0.172,0.317,0.271
		C8.163,19.998,8.079,20.102,8.024,20.169L8.024,20.169z"/>
</g>
<g>
	<path fill-rule="evenodd" clip-rule="evenodd" fill="#FFFF00" d="M35.205,21.931c-0.071,0-0.139-0.03-0.186-0.083
		c-0.052-0.059-0.112-0.114-0.171-0.17c-0.161-0.153-0.344-0.326-0.419-0.555c-0.081-0.25-0.09-0.508-0.098-0.757
		c-0.004-0.132-0.009-0.264-0.025-0.393c-0.094-0.743-0.446-1.262-1.11-1.635c-0.217-0.12-0.311-0.371-0.395-0.592
		c-0.03-0.079-0.06-0.159-0.095-0.228c-0.038-0.074-0.037-0.161,0.003-0.234c0.04-0.073,0.112-0.121,0.195-0.129
		c0.082-0.008,0.167-0.026,0.253-0.044c0.137-0.028,0.28-0.058,0.421-0.058c0.11,0,0.205,0.018,0.292,0.054
		c1.083,0.45,1.713,1.326,1.872,2.604c0.035,0.279,0.053,0.562,0.075,0.906l0.039,0.578c0.005,0.066-0.017,0.132-0.06,0.182
		l-0.401,0.466c-0.047,0.055-0.115,0.086-0.187,0.087C35.206,21.931,35.206,21.931,35.205,21.931z"/>
	<path fill="#FFFF00" d="M33.578,17.305c0.07,0,0.136,0.009,0.195,0.034c1.054,0.438,1.583,1.296,1.721,2.404
		c0.052,0.416,0.065,0.838,0.112,1.472c-0.066,0.077-0.234,0.272-0.401,0.466c-0.187-0.208-0.459-0.394-0.539-0.636
		c-0.111-0.344-0.065-0.735-0.113-1.104c-0.103-0.811-0.502-1.408-1.235-1.82c-0.201-0.111-0.264-0.47-0.39-0.716
		C33.14,17.385,33.376,17.305,33.578,17.305 M33.578,16.805c-0.167,0-0.329,0.033-0.472,0.063c-0.077,0.016-0.153,0.033-0.227,0.04
		c-0.165,0.016-0.311,0.113-0.39,0.258c-0.079,0.146-0.082,0.321-0.006,0.468c0.031,0.062,0.057,0.132,0.083,0.202
		c0.094,0.249,0.21,0.557,0.508,0.723c0.586,0.329,0.899,0.789,0.982,1.445c0.016,0.123,0.019,0.247,0.023,0.371
		c0.008,0.254,0.018,0.541,0.11,0.824c0.096,0.291,0.312,0.495,0.485,0.66c0.054,0.051,0.109,0.102,0.157,0.155
		c0.095,0.105,0.23,0.166,0.372,0.166c0.001,0,0.003,0,0.005,0c0.144-0.001,0.28-0.064,0.374-0.173l0.366-0.425l0.036-0.042
		c0.086-0.101,0.129-0.23,0.12-0.363c-0.016-0.214-0.028-0.402-0.039-0.576c-0.022-0.351-0.041-0.637-0.076-0.921
		c-0.169-1.354-0.869-2.323-2.025-2.804C33.85,16.829,33.72,16.805,33.578,16.805L33.578,16.805z"/>
</g>
<g>
	<path fill-rule="evenodd" clip-rule="evenodd" fill="#FFFF00" d="M23.285,13.281c-0.031,0-0.062-0.005-0.091-0.017
		c-0.082-0.032-0.141-0.104-0.155-0.19c-0.031-0.177-0.195-0.287-0.46-0.45c-0.405-0.25-0.958-0.593-0.818-1.501
		c0.012-0.076,0.058-0.143,0.125-0.18c0.038-0.021,0.08-0.032,0.122-0.032c0.033,0,0.066,0.006,0.097,0.02l0.785,0.331
		c0.032-0.294-0.009-0.484-0.388-0.684c-0.48-0.253-0.768-0.713-0.77-1.231c-0.002-0.558,0.324-1.08,0.852-1.363
		c0.141-0.076,0.278-0.157,0.446-0.256l0.252-0.149c0.04-0.023,0.083-0.034,0.126-0.034c0.057,0,0.113,0.019,0.159,0.057L24.902,8.7
		c0.089,0.074,0.116,0.199,0.065,0.302L24.83,9.285c-0.042,0.086-0.13,0.14-0.224,0.14c-0.015,0-0.029-0.001-0.044-0.004
		l-0.747-0.135c-0.036,0.282,0.018,0.453,0.405,0.619c0.478,0.204,0.794,0.631,0.848,1.143c0.058,0.566-0.208,1.129-0.695,1.469
		c-0.214,0.15-0.42,0.312-0.637,0.482l-0.297,0.231C23.393,13.263,23.339,13.281,23.285,13.281z"/>
	<path fill="#FFFF00" d="M23.41,7.792c0.443,0.364,0.888,0.732,1.333,1.1c-0.046,0.094-0.092,0.188-0.138,0.282
		c-0.317-0.057-0.633-0.115-0.995-0.18c-0.083,0.437-0.166,0.851,0.511,1.14c0.908,0.387,0.93,1.604,0.108,2.177
		c-0.313,0.219-0.607,0.461-0.944,0.72c-0.127-0.729-1.472-0.614-1.277-1.871c0.374,0.158,0.706,0.297,1.084,0.457
		c0.063-0.467,0.201-0.906-0.473-1.262c-0.904-0.477-0.817-1.669,0.083-2.153C22.911,8.091,23.112,7.967,23.41,7.792 M23.41,7.292
		c-0.087,0-0.174,0.022-0.252,0.068l-0.254,0.15c-0.164,0.097-0.298,0.177-0.436,0.25c-0.61,0.328-0.986,0.935-0.984,1.585
		c0.002,0.563,0.288,1.067,0.772,1.375L22.203,10.7c-0.063-0.026-0.129-0.04-0.195-0.04c-0.084,0-0.168,0.021-0.244,0.063
		c-0.134,0.075-0.227,0.208-0.25,0.36c-0.166,1.073,0.522,1.498,0.933,1.752c0.156,0.096,0.332,0.205,0.345,0.281
		c0.03,0.172,0.148,0.316,0.311,0.38c0.059,0.023,0.121,0.034,0.182,0.034c0.108,0,0.216-0.036,0.305-0.104l0.299-0.233
		c0.214-0.167,0.417-0.327,0.627-0.475c0.561-0.391,0.867-1.042,0.799-1.698c-0.063-0.604-0.436-1.107-0.998-1.348
		c-0.062-0.026-0.111-0.048-0.149-0.07l0.349,0.063c0.029,0.005,0.059,0.008,0.088,0.008c0.188,0,0.363-0.106,0.449-0.279
		l0.137-0.28c0.101-0.208,0.048-0.46-0.13-0.607c-0.445-0.369-0.891-0.737-1.334-1.101C23.635,7.331,23.523,7.292,23.41,7.292
		L23.41,7.292z"/>
</g>
</svg>
