<?xml version="1.0" encoding="utf-8"?>
<!-- Generator: Adobe Illustrator 16.0.0, SVG Export Plug-In . SVG Version: 6.00 Build 0)  -->
<!DOCTYPE svg PUBLIC "-//W3C//DTD SVG 1.1//EN" "http://www.w3.org/Graphics/SVG/1.1/DTD/svg11.dtd">
<svg version="1.1" xmlns="http://www.w3.org/2000/svg" xmlns:xlink="http://www.w3.org/1999/xlink" x="0px" y="0px" width="108px"
	 height="35px" viewBox="0 0 108 35" enable-background="new 0 0 108 35" xml:space="preserve">
<g id="Layer_2">
	<g>
		<path fill-rule="evenodd" clip-rule="evenodd" fill="#FFFFFF" d="M9.66,17.98c-2.095-0.601-2.091-1.957-0.968-3.137
			c-1.151-1.868-2.301-3.749-3.48-5.613C5.099,9.052,4.815,8.942,4.589,8.885C3.977,8.73,3.578,8.408,3.646,7.735
			C3.708,7.114,4.113,6.776,4.72,6.83c0.643,0.057,0.953,0.471,0.954,1.134c0,0.205,0.071,0.479,0.213,0.606
			c0.761,0.679,1.554,1.321,2.514,2.125c-0.153-1.22-0.265-2.242-0.428-3.253C7.952,7.316,7.665,7.218,7.49,7.131
			C6.86,6.816,6.6,6.196,6.899,5.628C7.198,5.06,7.686,4.861,8.292,5.067C8.888,5.271,9.097,5.906,8.906,6.57
			C8.837,6.812,8.872,7.174,9.014,7.369c0.58,0.795,1.219,1.546,2.026,2.25c0-1.288,0-2.575,0-3.862
			c0.072-0.024,0.145-0.048,0.217-0.071c0.705,1.099,1.41,2.199,2.115,3.299c0.053-0.019,0.106-0.037,0.159-0.056
			c0.067-1.115,0.151-2.23,0.183-3.345c0.005-0.165-0.208-0.375-0.372-0.499c-0.585-0.441-0.763-1.101-0.385-1.646
			c0.367-0.532,0.883-0.646,1.456-0.394c0.601,0.264,0.773,0.937,0.487,1.621c-0.079,0.186-0.155,0.471-0.07,0.612
			c0.568,0.937,1.18,1.848,1.965,2.741c0.062-1.312,0.125-2.622,0.188-3.932c0.077-0.028,0.153-0.055,0.229-0.081
			c0.652,1.123,1.305,2.248,1.957,3.371c0.06-0.014,0.119-0.028,0.179-0.042c0.163-1.051,0.34-2.102,0.469-3.158
			c0.016-0.134-0.206-0.319-0.348-0.447c-0.542-0.489-0.643-1.104-0.208-1.595c0.423-0.48,0.938-0.565,1.482-0.204
			c0.521,0.346,0.571,1.017,0.235,1.614c-0.136,0.241-0.198,0.624-0.108,0.875c0.306,0.854,0.694,1.679,1.12,2.675
			c0.432-1.156,0.817-2.125,1.144-3.113c0.063-0.191-0.071-0.475-0.171-0.691c-0.271-0.588-0.199-1.091,0.357-1.441
			c0.504-0.319,0.993-0.183,1.32,0.278c0.349,0.491,0.23,0.964-0.177,1.421c-0.215,0.244-0.412,0.597-0.428,0.91
			c-0.097,1.891-0.128,3.786-0.207,5.679c-0.019,0.466,0.048,0.73,0.57,0.925c1.039,0.389,1.274,1.542,0.566,2.398
			c-0.129,0.157-0.315,0.266-0.527,0.439c2.048,1.398,3.458,3.168,4.014,5.494c0.93,3.893,0.624,7.633-1.71,11.02
			c-1.323,1.922-3.228,3.071-5.42,3.737c-3.81,1.156-7.691,0.915-11.66,0.538C9.66,29.08,9.66,23.519,9.66,17.98z M13.728,31.674
			c1.351,0,2.586,0.077,3.81-0.014c3.418-0.253,5.894-2.298,6.686-5.61c0.284-1.185,0.403-2.45,0.355-3.67
			c-0.14-3.5-1.857-5.844-4.827-6.736c-0.448-0.135-0.987-0.136-1.445-0.031c-1.28,0.289-2.531,0.706-3.812,0.99
			c-0.609,0.136-0.785,0.385-0.782,0.999c0.027,4.394,0.015,8.788,0.015,13.18C13.728,31.041,13.728,31.299,13.728,31.674z
			 M9.428,17.366c0.387-0.09,0.566-0.128,0.743-0.176c4.469-1.18,8.938-2.361,13.404-3.549c0.25-0.067,0.58-0.132,0.704-0.313
			c0.231-0.338,0.533-0.818,0.441-1.131c-0.093-0.315-0.608-0.547-0.982-0.721c-0.175-0.081-0.458,0.042-0.684,0.102
			c-4.29,1.138-8.58,2.279-12.869,3.422c-0.354,0.095-0.726,0.162-1.05,0.323c-0.492,0.245-0.821,0.706-0.579,1.224
			C8.729,16.912,9.182,17.146,9.428,17.366z M13.861,13.437c1.641-0.445,3.141-0.854,4.748-1.289
			c-1.44-2.212-2.803-4.308-4.167-6.403c-0.061,0.016-0.122,0.032-0.184,0.048C14.129,8.291,13.999,10.789,13.861,13.437z
			 M19.189,12.02c1.348-0.355,2.544-0.671,3.803-1.003c-0.875-2.089-1.7-4.057-2.524-6.025c-0.07,0.019-0.141,0.036-0.211,0.053
			C19.907,7.33,19.557,9.614,19.189,12.02z M13.256,13.596c-1.555-1.946-3.001-3.757-4.447-5.566
			c-0.061,0.024-0.12,0.051-0.18,0.077c0.274,2.141,0.549,4.283,0.831,6.484C10.735,14.257,11.917,13.946,13.256,13.596z
			 M23.371,5.259c-1.172,2.492-1.185,3.292-0.026,4.524c-0.049-0.562-0.207-1.098-0.343-1.639c-0.042-0.168-0.104-0.429-0.02-0.513
			C23.677,6.922,23.297,6.052,23.371,5.259z M6.39,9.792C6.323,9.851,6.254,9.91,6.187,9.968c0.506,0.541,1.02,1.076,1.514,1.627
			c0.145,0.162,0.267,0.363,0.337,0.568c0.173,0.5,0.311,1.013,0.464,1.521C9.095,11.644,7.76,10.709,6.39,9.792z M13.949,3.192
			c-0.304,0.422-0.587,0.645-0.593,0.873c-0.005,0.197,0.338,0.582,0.475,0.56c0.243-0.039,0.579-0.293,0.628-0.514
			C14.503,3.913,14.214,3.641,13.949,3.192z M20.89,2.776c-0.381-0.221-0.623-0.475-0.814-0.441
			c-0.195,0.035-0.483,0.363-0.469,0.541c0.016,0.184,0.345,0.469,0.542,0.471C20.343,3.352,20.544,3.06,20.89,2.776z M8.709,6.157
			C8.33,5.86,8.14,5.6,7.93,5.584C7.759,5.57,7.41,5.86,7.418,5.997C7.433,6.21,7.654,6.53,7.843,6.576
			C8.026,6.623,8.28,6.379,8.709,6.157z M23.812,3.352c0.216-0.26,0.458-0.422,0.458-0.584c0-0.162-0.245-0.322-0.382-0.482
			c-0.175,0.148-0.436,0.271-0.493,0.457C23.356,2.865,23.613,3.077,23.812,3.352z M4.017,7.812c0.269,0.22,0.434,0.461,0.593,0.457
			c0.165-0.004,0.325-0.243,0.487-0.38C4.945,7.715,4.82,7.458,4.633,7.399C4.511,7.361,4.299,7.613,4.017,7.812z"/>
		<path fill-rule="evenodd" clip-rule="evenodd" fill="#FFFFFF" d="M15.653,13.973c0.669,0.041,1.187,0.072,1.943,0.117
			c-0.636,0.448-1.087,0.767-1.689,1.189c0.136-0.358,0.217-0.573,0.298-0.787C16.054,14.35,15.902,14.207,15.653,13.973z"/>
		<path fill-rule="evenodd" clip-rule="evenodd" fill="#FFFFFF" d="M22.208,12.894c-0.654,0.439-1.109,0.747-1.743,1.171
			c0.184-0.388,0.278-0.589,0.384-0.813c-0.158-0.107-0.327-0.223-0.496-0.339c0.005-0.056,0.009-0.111,0.014-0.167
			C20.896,12.787,21.425,12.83,22.208,12.894z"/>
		<path fill-rule="evenodd" clip-rule="evenodd" fill="#FFFFFF" d="M10.953,15.22c0.717,0.033,1.252,0.057,2.034,0.092
			c-0.619,0.44-1.071,0.76-1.682,1.194c0.143-0.383,0.219-0.586,0.301-0.807C11.437,15.575,11.265,15.449,10.953,15.22z"/>
		<path fill-rule="evenodd" clip-rule="evenodd" fill="#FFFFFF" d="M15.011,8.194c0.271,0.318,0.657,0.744,1.007,1.199
			c0.1,0.129,0.154,0.345,0.132,0.508c-0.078,0.57-0.197,1.135-0.278,1.579c-0.292-0.369-0.696-0.869-1.086-1.379
			c-0.057-0.074-0.086-0.202-0.071-0.295C14.815,9.213,14.931,8.625,15.011,8.194z"/>
		<path fill-rule="evenodd" clip-rule="evenodd" fill="#FFFFFF" d="M20.972,10.019c-0.208-0.343-0.46-0.74-0.688-1.15
			c-0.072-0.13-0.132-0.309-0.101-0.445c0.116-0.517,0.271-1.024,0.386-1.444c0.214,0.355,0.485,0.787,0.735,1.231
			c0.06,0.104,0.095,0.258,0.067,0.371C21.244,9.098,21.089,9.606,20.972,10.019z"/>
		<path fill-rule="evenodd" clip-rule="evenodd" fill="#FFFFFF" d="M10.611,12.715c-0.275-0.261-0.619-0.576-0.948-0.905
			c-0.087-0.087-0.18-0.217-0.184-0.331C9.46,10.92,9.47,10.359,9.47,9.908c0.297,0.294,0.67,0.647,1.019,1.022
			c0.099,0.106,0.174,0.279,0.175,0.422C10.665,11.841,10.628,12.328,10.611,12.715z"/>
	</g>
	<g>
		<path fill="#FFFFFF" d="M45.063,12.974v10.72H40.59V8.655h5.829c2.556,0,4.558,0.58,6.005,1.741
			c1.719,1.388,2.578,3.272,2.578,5.652c0,2.277-0.734,4.135-2.204,5.575c-1.469,1.439-3.36,2.159-5.674,2.159
			c-0.272,0-0.716-0.015-1.333-0.044V19.32h0.716c2.607,0,3.911-1.091,3.911-3.272c0-2.049-1.282-3.074-3.845-3.074H45.063z"/>
		<path fill="#FFFFFF" d="M62.901,19.574v4.264c-0.338,0.059-0.646,0.088-0.926,0.088c-1.652,0-3.03-0.544-4.132-1.631
			s-1.652-2.449-1.652-4.087c0-1.594,0.557-2.946,1.669-4.055c1.113-1.109,2.466-1.664,4.061-1.664c1.777,0,3.179,0.52,4.204,1.559
			c1.024,1.04,1.535,2.459,1.535,4.258v5.388h-4.12v-5.09c0-0.58-0.142-1.043-0.424-1.389c-0.283-0.345-0.663-0.518-1.141-0.518
			c-0.434,0-0.808,0.158-1.124,0.474c-0.315,0.316-0.474,0.69-0.474,1.124c0,0.455,0.144,0.83,0.43,1.124
			c0.286,0.293,0.65,0.44,1.091,0.44C62.259,19.86,62.593,19.765,62.901,19.574z"/>
		<path fill="#FFFFFF" d="M79.856,23.694h-4.12v-6.203c0-0.631-0.262-0.947-0.783-0.947c-0.514,0-0.771,0.316-0.771,0.947v6.203
			h-4.121v-6.126c0-1.432,0.474-2.639,1.422-3.619c0.947-0.98,2.107-1.471,3.481-1.471c1.571,0,2.831,0.569,3.779,1.708
			c0.741,0.889,1.112,2.126,1.112,3.713V23.694z"/>
		<path fill="#FFFFFF" d="M86.379,8.655v15.039h-4.121V8.655H86.379z M92.692,12.71l-2.017,3.999l2.997,6.985h-4.562l-2.578-7.172
			l1.873-3.812H92.692z"/>
	</g>
</g>
<g id="Layer_1" display="none">
	<g display="inline">
		<defs>
			<rect id="SVGID_1_" width="108" height="35"/>
		</defs>
		<clipPath id="SVGID_2_">
			<use xlink:href="#SVGID_1_"  overflow="visible"/>
		</clipPath>
		<path clip-path="url(#SVGID_2_)" fill="#FFFFFF" d="M46.949,12.282l4.463,11.358h-1.635l0,0c-0.183,0-0.333-0.045-0.451-0.137l0,0
			l0,0c-0.118-0.092-0.204-0.206-0.256-0.342l0,0l-0.848-2.317h-4.706l-0.848,2.317l0,0c-0.042,0.121-0.125,0.23-0.248,0.33l0,0l0,0
			c-0.123,0.1-0.273,0.148-0.451,0.148l0,0h-1.642l4.462-11.358H46.949L46.949,12.282z M45.441,15.589l-1.383,3.763h3.622
			l-1.383-3.778l0,0c-0.063-0.167-0.132-0.365-0.208-0.593l0,0l0,0c-0.076-0.228-0.15-0.475-0.224-0.742l0,0l0,0
			c-0.074,0.267-0.146,0.516-0.216,0.746l0,0l0,0C45.578,15.215,45.509,15.417,45.441,15.589L45.441,15.589L45.441,15.589z
			 M55.992,23.768L55.992,23.768L55.992,23.768c-0.696,0-1.232-0.198-1.61-0.594l0,0l0,0c-0.377-0.395-0.566-0.941-0.566-1.638l0,0
			v-4.502h-0.817l0,0c-0.104,0-0.195-0.034-0.271-0.102l0,0l0,0c-0.076-0.068-0.114-0.17-0.114-0.306l0,0v-0.77l1.297-0.212
			l0.408-2.2l0,0c0.021-0.104,0.07-0.186,0.145-0.243l0,0l0,0c0.076-0.058,0.172-0.087,0.287-0.087l0,0h1.006v2.538h2.121v1.382
			h-2.121v4.368l0,0c0,0.251,0.063,0.447,0.188,0.59l0,0l0,0c0.125,0.141,0.293,0.212,0.503,0.212l0,0l0,0
			c0.12,0,0.222-0.015,0.302-0.044l0,0l0,0c0.082-0.029,0.152-0.059,0.213-0.09l0,0l0,0c0.061-0.031,0.113-0.062,0.161-0.09l0,0l0,0
			c0.047-0.029,0.094-0.043,0.142-0.043l0,0l0,0c0.057,0,0.104,0.014,0.141,0.043l0,0l0,0c0.037,0.028,0.076,0.071,0.117,0.129l0,0
			l0.582,0.942l0,0c-0.283,0.236-0.607,0.414-0.974,0.534l0,0l0,0C56.766,23.707,56.385,23.768,55.992,23.768z M60.424,11.967h1.939
			v11.674h-1.939V11.967L60.424,11.967z M71.745,18.551v5.09h-0.872l0,0c-0.184,0-0.327-0.027-0.432-0.082l0,0l0,0
			c-0.105-0.055-0.184-0.166-0.235-0.334l0,0l-0.173-0.574l0,0c-0.205,0.184-0.405,0.346-0.602,0.484l0,0l0,0
			c-0.196,0.139-0.399,0.256-0.609,0.35l0,0l0,0c-0.209,0.094-0.432,0.165-0.668,0.211l0,0l0,0
			c-0.234,0.048-0.496,0.072-0.784,0.072l0,0l0,0c-0.341,0-0.655-0.047-0.942-0.139l0,0l0,0c-0.289-0.092-0.537-0.23-0.744-0.414
			l0,0l0,0c-0.206-0.184-0.367-0.412-0.482-0.686l0,0l0,0c-0.115-0.273-0.174-0.591-0.174-0.953l0,0l0,0
			c0-0.305,0.08-0.605,0.24-0.903l0,0l0,0c0.16-0.296,0.426-0.564,0.797-0.804l0,0l0,0c0.373-0.238,0.867-0.438,1.485-0.596l0,0l0,0
			c0.618-0.156,1.386-0.235,2.302-0.235l0,0v-0.476l0,0c0-0.543-0.113-0.946-0.342-1.207l0,0l0,0
			c-0.227-0.261-0.559-0.392-0.992-0.392l0,0l0,0c-0.315,0-0.577,0.037-0.787,0.11l0,0l0,0c-0.209,0.073-0.391,0.155-0.545,0.247
			l0,0l0,0c-0.155,0.092-0.298,0.175-0.429,0.248l0,0l0,0c-0.132,0.074-0.275,0.11-0.432,0.11l0,0l0,0
			c-0.132,0-0.244-0.034-0.339-0.102l0,0l0,0c-0.094-0.069-0.17-0.153-0.228-0.252l0,0l-0.353-0.621l0,0
			c0.926-0.848,2.045-1.272,3.354-1.272l0,0l0,0c0.472,0,0.893,0.077,1.262,0.232l0,0l0,0c0.369,0.154,0.682,0.369,0.938,0.644l0,0
			l0,0c0.257,0.274,0.452,0.603,0.585,0.986l0,0l0,0C71.678,17.676,71.745,18.095,71.745,18.551L71.745,18.551L71.745,18.551z
			 M67.975,22.432L67.975,22.432L67.975,22.432c0.199,0,0.382-0.019,0.549-0.055l0,0l0,0c0.168-0.037,0.327-0.092,0.477-0.165l0,0
			l0,0c0.149-0.073,0.293-0.163,0.432-0.271l0,0l0,0c0.139-0.107,0.279-0.234,0.42-0.381l0,0v-1.336l0,0
			c-0.564,0-1.037,0.035-1.418,0.106l0,0l0,0c-0.379,0.071-0.685,0.162-0.914,0.272l0,0l0,0c-0.23,0.111-0.395,0.24-0.492,0.388l0,0
			l0,0c-0.097,0.147-0.146,0.309-0.146,0.483l0,0l0,0c0,0.342,0.101,0.588,0.304,0.735l0,0l0,0
			C67.387,22.357,67.649,22.432,67.975,22.432z M76.468,23.641h-1.94v-8.06h1.186l0,0c0.252,0,0.416,0.118,0.495,0.354l0,0
			l0.134,0.636l0,0c0.162-0.167,0.334-0.319,0.514-0.456l0,0l0,0c0.182-0.136,0.373-0.254,0.574-0.353l0,0l0,0
			c0.201-0.1,0.418-0.175,0.648-0.228l0,0l0,0c0.23-0.053,0.482-0.079,0.754-0.079l0,0l0,0c0.439,0,0.83,0.075,1.171,0.224l0,0l0,0
			c0.34,0.149,0.624,0.359,0.853,0.629l0,0l0,0c0.228,0.269,0.4,0.591,0.519,0.966l0,0l0,0c0.117,0.375,0.176,0.787,0.176,1.237l0,0
			v5.13h-1.94v-5.13l0,0c0-0.491-0.113-0.873-0.342-1.143l0,0l0,0c-0.228-0.27-0.569-0.404-1.024-0.404l0,0l0,0
			c-0.335,0-0.649,0.076-0.943,0.228l0,0l0,0c-0.293,0.151-0.57,0.358-0.832,0.62l0,0V23.641L76.468,23.641z M86.98,23.768
			L86.98,23.768L86.98,23.768c-0.697,0-1.234-0.198-1.611-0.594l0,0l0,0c-0.377-0.395-0.564-0.941-0.564-1.638l0,0v-4.502h-0.818
			l0,0c-0.104,0-0.195-0.034-0.271-0.102l0,0l0,0c-0.075-0.068-0.114-0.17-0.114-0.306l0,0v-0.77l1.297-0.212l0.408-2.2l0,0
			c0.021-0.104,0.069-0.186,0.146-0.243l0,0l0,0c0.075-0.058,0.171-0.087,0.286-0.087l0,0h1.006v2.538h2.121v1.382h-2.121v4.368l0,0
			c0,0.251,0.063,0.447,0.189,0.59l0,0l0,0c0.125,0.141,0.292,0.212,0.502,0.212l0,0l0,0c0.12,0,0.221-0.015,0.303-0.044l0,0l0,0
			c0.081-0.029,0.152-0.059,0.212-0.09l0,0l0,0c0.06-0.031,0.113-0.062,0.161-0.09l0,0l0,0c0.047-0.029,0.094-0.043,0.141-0.043l0,0
			l0,0c0.059,0,0.105,0.014,0.143,0.043l0,0l0,0c0.036,0.028,0.076,0.071,0.117,0.129l0,0l0.581,0.942l0,0
			c-0.282,0.236-0.606,0.414-0.974,0.534l0,0l0,0C87.752,23.707,87.373,23.768,86.98,23.768z M91.411,15.581h1.94v8.06h-1.94V15.581
			L91.411,15.581z M93.643,13.232L93.643,13.232L93.643,13.232c0,0.168-0.035,0.325-0.103,0.472l0,0l0,0
			c-0.067,0.146-0.158,0.274-0.271,0.384l0,0l0,0c-0.113,0.11-0.245,0.198-0.396,0.264l0,0l0,0
			c-0.152,0.065-0.314,0.098-0.488,0.098l0,0l0,0c-0.167,0-0.325-0.033-0.475-0.098l0,0l0,0c-0.149-0.066-0.279-0.154-0.389-0.264
			l0,0l0,0c-0.11-0.11-0.198-0.238-0.264-0.384l0,0l0,0c-0.064-0.147-0.098-0.304-0.098-0.472l0,0l0,0
			c0-0.172,0.033-0.335,0.098-0.487l0,0l0,0c0.065-0.152,0.153-0.283,0.264-0.393l0,0l0,0c0.109-0.11,0.239-0.198,0.389-0.263l0,0
			l0,0c0.149-0.065,0.308-0.098,0.475-0.098l0,0l0,0c0.174,0,0.336,0.032,0.488,0.098l0,0l0,0c0.151,0.065,0.283,0.153,0.396,0.263
			l0,0l0,0c0.112,0.11,0.203,0.241,0.271,0.393l0,0l0,0C93.607,12.897,93.643,13.06,93.643,13.232z M101.641,16.453l-0.439,0.699
			l0,0c-0.053,0.084-0.107,0.143-0.165,0.177l0,0l0,0c-0.058,0.034-0.132,0.051-0.22,0.051l0,0l0,0
			c-0.096,0-0.196-0.026-0.303-0.078l0,0l0,0c-0.107-0.052-0.232-0.111-0.373-0.177l0,0l0,0c-0.143-0.065-0.303-0.125-0.483-0.177
			l0,0l0,0c-0.181-0.053-0.394-0.079-0.64-0.079l0,0l0,0c-0.383,0-0.685,0.081-0.904,0.244l0,0l0,0
			c-0.221,0.163-0.33,0.375-0.33,0.636l0,0l0,0c0,0.173,0.057,0.319,0.169,0.437l0,0l0,0c0.112,0.117,0.262,0.221,0.448,0.311l0,0
			l0,0c0.186,0.088,0.396,0.168,0.632,0.238l0,0l0,0c0.235,0.071,0.477,0.148,0.723,0.232l0,0l0,0
			c0.246,0.084,0.487,0.18,0.724,0.287l0,0l0,0c0.234,0.107,0.445,0.243,0.631,0.408l0,0l0,0c0.187,0.165,0.336,0.363,0.449,0.593
			l0,0l0,0c0.112,0.231,0.168,0.509,0.168,0.833l0,0l0,0c0,0.388-0.07,0.744-0.211,1.072l0,0l0,0
			c-0.143,0.327-0.35,0.61-0.621,0.849l0,0l0,0c-0.272,0.238-0.609,0.425-1.01,0.558l0,0l0,0c-0.4,0.134-0.859,0.201-1.379,0.201
			l0,0l0,0c-0.277,0-0.549-0.025-0.813-0.076l0,0l0,0c-0.266-0.049-0.52-0.118-0.762-0.207l0,0l0,0
			c-0.244-0.089-0.469-0.193-0.677-0.314l0,0l0,0c-0.206-0.121-0.389-0.252-0.546-0.393l0,0l0.448-0.738l0,0
			c0.058-0.09,0.126-0.158,0.204-0.205l0,0l0,0c0.078-0.047,0.178-0.07,0.299-0.07l0,0l0,0c0.121,0,0.234,0.034,0.342,0.103l0,0l0,0
			c0.107,0.067,0.232,0.142,0.373,0.22l0,0l0,0c0.141,0.078,0.308,0.152,0.499,0.221l0,0l0,0c0.19,0.067,0.433,0.102,0.726,0.102
			l0,0l0,0c0.23,0,0.429-0.027,0.594-0.083l0,0l0,0c0.165-0.055,0.301-0.127,0.408-0.216l0,0l0,0
			c0.107-0.089,0.187-0.192,0.236-0.311l0,0l0,0c0.049-0.117,0.074-0.239,0.074-0.365l0,0l0,0c0-0.188-0.057-0.343-0.169-0.464l0,0
			l0,0c-0.112-0.12-0.262-0.225-0.447-0.313l0,0l0,0c-0.187-0.09-0.398-0.17-0.637-0.24l0,0l0,0c-0.238-0.07-0.481-0.147-0.729-0.23
			l0,0l0,0c-0.25-0.084-0.493-0.183-0.732-0.295l0,0l0,0c-0.237-0.113-0.449-0.256-0.635-0.429l0,0l0,0
			c-0.187-0.173-0.336-0.385-0.449-0.636l0,0l0,0c-0.111-0.252-0.168-0.556-0.168-0.912l0,0l0,0c0-0.33,0.064-0.644,0.195-0.942l0,0
			l0,0c0.132-0.299,0.324-0.56,0.578-0.782l0,0l0,0c0.254-0.223,0.57-0.401,0.95-0.534l0,0l0,0c0.38-0.134,0.819-0.201,1.315-0.201
			l0,0l0,0c0.557,0,1.062,0.092,1.517,0.275l0,0l0,0C100.957,15.913,101.337,16.154,101.641,16.453L101.641,16.453L101.641,16.453z"
			/>
		<path clip-path="url(#SVGID_2_)" fill="#FFFFFF" d="M29.894,9.22L15.447,0.879L1,9.22v16.683l4.816,2.779V12l9.631-5.56L25.078,12
			v16.682l4.816-2.779V9.22z"/>
		<path clip-path="url(#SVGID_2_)" fill="#FFFFFF" d="M20.262,14.781L15.447,12l-4.816,2.781v5.56l4.816,2.78l4.815-2.78V14.781z"/>
		<path clip-path="url(#SVGID_2_)" fill="#FFFFFF" d="M20.262,25.902l-4.815,2.779l-4.816-2.779v5.56l4.816,2.78l4.815-2.78V25.902z
			"/>
	</g>
</g>
</svg>
