<?xml version="1.0" encoding="utf-8"?>
<!-- Generator: Adobe Illustrator 16.0.0, SVG Export Plug-In . SVG Version: 6.00 Build 0)  -->
<!DOCTYPE svg PUBLIC "-//W3C//DTD SVG 1.1//EN" "http://www.w3.org/Graphics/SVG/1.1/DTD/svg11.dtd">
<svg version="1.1" id="Layer_2" xmlns="http://www.w3.org/2000/svg" xmlns:xlink="http://www.w3.org/1999/xlink" x="0px" y="0px"
	 width="113.5px" height="35px" viewBox="0 0 113.5 35" enable-background="new 0 0 113.5 35" xml:space="preserve">
<path fill="#FFFFFF" d="M62.119,21.001c0,2.744-0.781,5.116-2.344,7.116c-1.698,2.179-3.875,3.268-6.531,3.268
	c-0.507,0-1.272-0.02-2.292-0.06c-1.02-0.039-1.785-0.059-2.292-0.059c-0.459,0-1.149,0.02-2.073,0.059
	c-0.922,0.04-1.613,0.06-2.072,0.06c-0.244,0-0.366-0.122-0.366-0.366c0-1.064,0.041-2.671,0.124-4.819s0.125-3.759,0.125-4.832
	c0-1.133-0.039-2.837-0.117-5.112c-0.078-2.274-0.118-3.978-0.118-5.111c0-0.205,0.127-0.308,0.381-0.308
	c0.361,0,0.9,0.005,1.618,0.015c0.718,0.009,1.258,0.014,1.619,0.014c0.332,0,0.839-0.005,1.523-0.014
	c0.683-0.01,1.201-0.015,1.552-0.015c3.388,0,5.912,0.64,7.572,1.919c1.192,0.917,2.114,2.153,2.769,3.705
	C61.813,17.905,62.119,19.419,62.119,21.001z M58.531,21.001c0-2.109-0.601-3.828-1.802-5.155c-1.249-1.376-2.919-2.065-5.008-2.065
	c-1.729,0-2.426-0.01-2.094-0.03c-1.142,0.059-1.713,0.27-1.713,0.63c0,0.753-0.018,1.878-0.052,3.375
	c-0.034,1.5-0.051,2.625-0.051,3.377c0,0.741,0.017,1.855,0.051,3.338c0.034,1.484,0.052,2.599,0.052,3.339
	c0,0.371,0.585,0.587,1.757,0.646c-0.156-0.01,0.557-0.015,2.138-0.015c1.123,0,2.017-0.117,2.681-0.352
	c0.82-0.293,1.557-0.835,2.21-1.625C57.921,24.979,58.531,23.158,58.531,21.001z"/>
<path fill="#FFFFFF" d="M78.697,18.13c0,0.039-0.015,0.127-0.043,0.264c-0.382,2.236-0.571,4.163-0.571,5.784
	c0,0.098,0.121,2.291,0.365,6.576l0.015,0.206c0.009,0.283-0.119,0.425-0.388,0.425s-0.675,0.03-1.216,0.095
	c-0.542,0.063-0.944,0.095-1.208,0.095c-0.187,0-0.326-0.341-0.425-1.025c-0.097-0.683-0.19-1.024-0.277-1.024
	c-0.059,0-0.323,0.189-0.792,0.571c-0.576,0.468-1.113,0.825-1.61,1.068c-0.772,0.391-1.543,0.586-2.314,0.586
	c-1.895,0-3.491-0.757-4.789-2.271c-1.23-1.443-1.845-3.128-1.845-5.052c0-2.168,0.62-3.959,1.859-5.374
	c1.298-1.476,3.007-2.212,5.126-2.212c1.494,0,2.799,0.518,3.91,1.552c0.167,0.195,0.425,0.479,0.776,0.85
	c0.03,0.03,0.059,0.045,0.087,0.045c0.061,0,0.143-0.309,0.25-0.924c0.106-0.615,0.245-0.922,0.41-0.922
	c0.264,0,0.756,0.072,1.479,0.219C78.298,17.837,78.697,17.993,78.697,18.13z M74.963,24.252c0-1.2-0.355-2.231-1.069-3.091
	c-0.752-0.927-1.714-1.391-2.885-1.391c-1.172,0-2.148,0.46-2.929,1.376c-0.753,0.878-1.129,1.915-1.129,3.105
	c0,1.181,0.376,2.207,1.129,3.075c0.78,0.907,1.757,1.362,2.929,1.362c1.143,0,2.099-0.464,2.871-1.391
	C74.602,26.429,74.963,25.413,74.963,24.252z"/>
<path fill="#FFFFFF" d="M93.988,31.091c0,0.215-0.099,0.322-0.293,0.322c-0.322,0-0.803-0.005-1.443-0.015
	c-0.639-0.01-1.12-0.014-1.441-0.014c-0.176,0-0.265-0.142-0.265-0.425c0-0.478,0.016-1.206,0.044-2.183s0.045-1.708,0.045-2.196
	c0-0.392-0.006-0.975-0.017-1.75c-0.01-0.777-0.014-1.36-0.014-1.751c0-1.112-0.16-1.897-0.483-2.357
	c-0.39-0.547-1.112-0.82-2.167-0.82c-0.488,0-1.168,0.273-2.037,0.82c-0.916,0.577-1.376,1.088-1.376,1.537v8.787
	c0,0.244-0.093,0.366-0.278,0.366c-0.312,0-0.781-0.005-1.405-0.015c-0.626-0.01-1.095-0.014-1.407-0.014
	c-0.204,0-0.307-0.112-0.307-0.338c0-0.77,0.013-1.928,0.036-3.471c0.025-1.542,0.037-2.705,0.037-3.485
	c0-2.08-0.22-3.998-0.659-5.756c-0.028-0.087-0.043-0.15-0.043-0.189c0-0.098,0.063-0.167,0.189-0.206
	c0.069-0.01,0.627-0.101,1.677-0.271c1.05-0.171,1.6-0.257,1.648-0.257c0.058,0,0.097,0.079,0.117,0.234
	c0.048,0.605,0.16,1.216,0.337,1.831c0.506-0.399,1.176-0.898,2.006-1.494c1.025-0.625,2.016-0.938,2.974-0.938
	c1.836,0,3.091,0.531,3.764,1.596c0.497,0.781,0.747,2.046,0.747,3.793c0,0.304-0.008,0.766-0.021,1.393
	c-0.017,0.624-0.023,1.092-0.023,1.404c0,0.655,0.01,1.631,0.029,2.93C93.979,29.461,93.988,30.437,93.988,31.091z"/>
<path fill="#FFFFFF" d="M111.167,21.338c0,2.539-1.177,4.237-3.529,5.097c0,0.498,0.976,2.05,2.929,4.656
	c0,0.147-0.487,0.245-1.464,0.294c-0.645,0.028-1.128,0.043-1.451,0.043c-0.692,0-1.128-0.146-1.302-0.439
	c-0.46-0.781-1.182-1.919-2.169-3.412c-0.117-0.176-1.177-0.249-3.177-0.219l-0.573,0.014v3.617c0,0.303-0.106,0.455-0.321,0.455
	c-0.313,0-0.773-0.006-1.385-0.016c-0.609-0.01-1.071-0.015-1.383-0.015c-0.216,0-0.323-0.191-0.323-0.571v-9.108
	c0-1.19-0.046-2.974-0.138-5.346c-0.094-2.374-0.14-4.155-0.14-5.346c0-0.176,0.094-0.273,0.277-0.293
	c0.323-0.01,0.812-0.029,1.465-0.059c0.137-0.009,0.425-0.044,0.863-0.103c0.352-0.049,0.636-0.073,0.851-0.073
	c0.136,0,0.205,0.118,0.205,0.352c0,0.527-0.023,1.313-0.073,2.358c-0.049,1.044-0.072,1.831-0.072,2.358v3.779
	c0,0.204,0.043,0.307,0.131,0.307c0.234-0.194,0.586-0.483,1.055-0.864c1.64-1.269,3.203-1.904,4.688-1.904
	c1.444,0,2.626,0.371,3.543,1.112C110.669,18.823,111.167,19.932,111.167,21.338z M107.638,22.024c0-1.395-0.903-2.093-2.71-2.093
	c-1.348,0-2.864,0.898-4.554,2.695v2.181c0.79,0.147,1.747,0.22,2.871,0.22c1.131,0,2.098-0.213,2.898-0.645
	C107.14,23.846,107.638,23.062,107.638,22.024z"/>
<g>
	<path fill="none" d="M28.634,1.962c-0.681-0.082-1.185-0.298-1.438-0.131C26.938,2,26.726,2.647,26.855,2.895
		c0.136,0.253,0.784,0.459,1.068,0.341C28.204,3.125,28.312,2.581,28.634,1.962z"/>
	<path fill="none" d="M12.162,20.94c-0.06,0.127-0.122,0.253-0.184,0.378c1.058,0.464,2.125,0.914,3.171,1.402
		c0.308,0.144,0.606,0.355,0.833,0.605c0.556,0.612,1.069,1.263,1.601,1.896C17.179,21.932,14.689,21.412,12.162,20.94z"/>
	<path fill="none" d="M16.624,13.271c1.351,3.662,2.701,7.323,4.133,11.203c2.079-1.647,3.978-3.155,6.013-4.769
		c-3.426-2.285-6.669-4.451-9.913-6.616C16.78,13.149,16.702,13.21,16.624,13.271z M19.18,16.251
		c0.584,0.29,1.399,0.663,2.182,1.099c0.223,0.123,0.433,0.4,0.501,0.647c0.239,0.864,0.416,1.747,0.573,2.435
		c-0.646-0.35-1.533-0.818-2.407-1.31c-0.126-0.071-0.247-0.235-0.283-0.38C19.526,17.833,19.329,16.919,19.18,16.251z"/>
	<path fill="none" d="M30.604,11.265c-0.164-0.216-0.412-0.552-0.344-0.725c0.56-1.445-0.519-2.458-0.902-3.64
		c-0.148,4.294,0.328,5.449,2.745,6.502C31.688,12.628,31.133,11.957,30.604,11.265z"/>
	<path fill="none" d="M25.032,8.301c-0.089,0.071-0.181,0.138-0.271,0.207c0.905,3.492,1.81,6.982,2.762,10.658
		c1.714-1.339,3.235-2.528,4.835-3.78C29.818,12.931,27.426,10.616,25.032,8.301z M27.156,13.975
		c-0.183-0.143-0.379-0.362-0.419-0.577c-0.152-0.811-0.243-1.635-0.335-2.308c0.525,0.377,1.18,0.83,1.811,1.313
		c0.15,0.112,0.295,0.313,0.325,0.49c0.133,0.818,0.225,1.643,0.311,2.307C28.34,14.836,27.734,14.423,27.156,13.975z"/>
	<path fill="none" d="M23.061,29.198L26.74,26.2c-1.032,0.822-2.058,1.652-3.128,2.422C23.34,28.818,23.178,29.005,23.061,29.198z"
		/>
	<path fill="none" d="M34.809,18.79c0.318-0.251,0.751-0.546,0.817-0.882c0.123-0.627,0.26-1.501-0.063-1.894
		c-0.327-0.395-1.209-0.41-1.852-0.429c-0.3-0.009-0.631,0.341-0.917,0.567c-5.451,4.271-10.899,8.545-16.344,12.823
		c-0.449,0.353-0.941,0.679-1.307,1.108c-0.555,0.654-0.743,1.518-0.076,2.111c0.47,0.419,1.263,0.474,1.751,0.641
		c0.499-0.369,0.732-0.532,0.958-0.712C23.456,27.684,29.136,23.241,34.809,18.79z M29.659,19.481
		c0.784-0.267,1.569-0.53,2.729-0.919c-0.667,1.031-1.131,1.752-1.779,2.75c0.025-0.67,0.037-1.016,0.05-1.402
		c-0.291-0.057-0.604-0.119-0.918-0.182C29.714,19.646,29.686,19.564,29.659,19.481z M26.514,23.113
		c-0.637,1.032-1.087,1.768-1.691,2.744c-0.025-0.597-0.041-0.954-0.057-1.313c-0.305-0.11-0.61-0.222-1.112-0.403
		C24.64,23.788,25.401,23.514,26.514,23.113z M20.656,27.701c-0.616,1.013-1.066,1.749-1.676,2.745
		c-0.03-0.637-0.047-0.974-0.066-1.342c-0.317-0.072-0.643-0.148-1.23-0.283C18.731,28.426,19.514,28.132,20.656,27.701z"/>
	<path fill="none" d="M19.987,25.075c-3.426-1.834-6.614-3.539-9.8-5.245c-0.072,0.073-0.141,0.148-0.211,0.221
		c1.71,2.901,3.422,5.803,5.18,8.785C16.779,27.574,18.284,26.401,19.987,25.075z M12.29,22.117c0.608,0.239,1.358,0.516,2.09,0.838
		c0.207,0.092,0.422,0.293,0.51,0.498c0.304,0.7,0.55,1.421,0.763,1.987c-0.554-0.205-1.241-0.445-1.916-0.716
		c-0.178-0.069-0.391-0.199-0.467-0.36C12.898,23.573,12.567,22.764,12.29,22.117z"/>
	<path fill="#FFFF00" d="M23.612,28.622c1.07-0.77,2.096-1.6,3.128-2.422l9.607-7.825c0.142-0.248,0.275-0.47,0.341-0.696
		c0.488-1.663-0.558-3.171-2.287-3.09c-0.868,0.042-1.127-0.296-1.386-0.977c-1.052-2.761-2.173-5.497-3.197-8.268
		c-0.169-0.458-0.104-1.087,0.054-1.568c0.303-0.904,0.182-1.656-0.621-2.146c-0.752-0.46-1.537-0.354-2.063,0.413
		c-0.583,0.843-0.375,1.609,0.374,2.286c0.276,0.249,0.644,0.572,0.67,0.886c0.141,1.617,0.184,3.244,0.276,5.167
		c-1.224-1.167-2.287-2.11-3.251-3.147c-0.283-0.305-0.431-0.892-0.384-1.32c0.115-1.063-0.37-1.994-1.33-2.168
		C22.541,3.562,21.855,4,21.544,4.949c-0.322,0.972,0.201,1.791,1.28,2.159c0.283,0.096,0.714,0.225,0.773,0.427
		c0.467,1.593,0.857,3.208,1.271,4.815c-0.078,0.056-0.153,0.113-0.231,0.17c-1.625-1.208-3.253-2.419-4.879-3.629
		c-0.093,0.085-0.186,0.171-0.279,0.258c0.716,1.916,1.432,3.833,2.15,5.752c-1.675-0.796-3.112-1.726-4.503-2.72
		c-0.208-0.149-0.275-0.606-0.277-0.919c-0.011-1.157-0.67-2.016-1.694-2.024c-0.977-0.008-1.647,0.472-1.846,1.461
		c-0.206,1.013,0.454,1.85,1.564,2.122c0.311,0.077,0.746,0.247,0.839,0.486c0.642,1.618,1.207,3.269,1.796,4.909
		c-0.065,0.059-0.13,0.118-0.193,0.177c-1.687-1.143-3.375-2.285-5.061-3.428c-0.089,0.078-0.179,0.156-0.268,0.235
		c0.792,1.846,1.584,3.69,2.376,5.537c-1.59-0.512-2.969-1.195-4.29-1.979c-0.323-0.191-0.596-0.691-0.646-1.078
		c-0.136-1.07-0.825-1.853-1.806-1.778c-0.996,0.078-1.573,0.663-1.65,1.661c-0.08,1,0.675,1.729,1.771,1.792
		c0.305,0.017,0.777-0.02,0.883,0.149c0.858,1.35,1.647,2.745,2.616,4.4c-1.872-0.563-3.402-0.995-4.912-1.5
		c-0.281-0.097-0.552-0.444-0.678-0.739c-0.409-0.95-1.108-1.353-2.065-1.038c-0.904,0.295-1.275,1.03-0.983,1.959
		c0.315,1.006,1.086,1.222,2.059,1.067c0.36-0.058,0.834-0.073,1.106,0.112c2.838,1.947,5.643,3.937,8.442,5.906
		c-0.884,2.383-0.055,4.33,3.317,3.902c0.014,0.033,0.028,0.064,0.042,0.097l5.49-4.473C23.178,29.005,23.34,28.818,23.612,28.622z
		 M4.314,22.757c-0.225,0.104-0.611-0.14-1.131-0.29c0.282-0.459,0.431-0.951,0.63-0.971c0.304-0.029,0.641,0.26,0.964,0.417
		C4.63,22.209,4.548,22.648,4.314,22.757z M28.27,2.319c0.295,0.145,0.744,0.224,0.844,0.457c0.101,0.232-0.146,0.614-0.296,1.119
		c-0.454-0.272-0.952-0.417-0.973-0.618C27.812,2.976,28.11,2.64,28.27,2.319z M29.358,6.901c0.383,1.182,1.462,2.195,0.902,3.64
		c-0.068,0.173,0.18,0.509,0.344,0.725c0.528,0.692,1.084,1.363,1.499,2.138C29.687,12.35,29.21,11.195,29.358,6.901z M22.497,5.798
		c-0.13-0.246,0.082-0.893,0.341-1.063c0.252-0.166,0.756,0.049,1.438,0.133c-0.323,0.619-0.431,1.161-0.712,1.273
		C23.281,6.259,22.633,6.053,22.497,5.798z M24.761,8.508c0.09-0.069,0.182-0.136,0.271-0.207c2.394,2.314,4.786,4.63,7.327,7.085
		c-1.6,1.251-3.122,2.44-4.835,3.78C26.571,15.49,25.667,12,24.761,8.508z M26.77,19.705c-2.036,1.613-3.934,3.121-6.013,4.769
		c-1.432-3.88-2.783-7.541-4.133-11.203c0.079-0.061,0.156-0.122,0.234-0.182C20.101,15.254,23.344,17.42,26.77,19.705z
		 M14.267,11.351c-0.132-0.332,0.136-0.824,0.312-1.617c0.658,0.479,1.238,0.691,1.297,1.004c0.066,0.345-0.26,0.918-0.584,1.122
		C15.11,11.977,14.382,11.637,14.267,11.351z M7.908,18.342c-0.299,0.05-0.813-0.273-0.965-0.57
		c-0.096-0.19,0.227-0.821,0.479-0.906c0.312-0.105,0.745,0.149,1.472,0.341C8.414,17.791,8.198,18.296,7.908,18.342z
		 M13.225,28.128c-0.531-0.635-1.044-1.285-1.601-1.896c-0.227-0.251-0.525-0.465-0.833-0.607c-1.046-0.486-2.113-0.938-3.171-1.4
		c0.061-0.126,0.124-0.253,0.183-0.379C10.331,24.317,12.821,24.837,13.225,28.128z M9.977,20.051
		c0.07-0.072,0.139-0.147,0.211-0.221c3.186,1.706,6.374,3.411,9.8,5.245c-1.704,1.326-3.208,2.499-4.831,3.761
		C13.398,25.854,11.687,22.952,9.977,20.051z M16.818,32.836c-0.488-0.167-1.282-0.222-1.751-0.641
		c-0.667-0.594-0.479-1.457,0.076-2.111c0.366-0.43,0.857-0.756,1.307-1.108c5.445-4.278,10.894-8.552,16.344-12.823
		c0.287-0.226,0.617-0.576,0.917-0.567c0.642,0.02,1.524,0.035,1.852,0.429c0.323,0.392,0.186,1.267,0.063,1.894
		c-0.066,0.336-0.499,0.631-0.817,0.882c-5.673,4.451-11.353,8.894-17.033,13.334C17.55,32.304,17.316,32.467,16.818,32.836z"/>
	<path fill="#00FF00" d="M24.823,25.857c0.604-0.977,1.054-1.712,1.691-2.744c-1.113,0.4-1.874,0.675-2.859,1.028
		c0.501,0.182,0.807,0.293,1.112,0.403C24.783,24.903,24.798,25.261,24.823,25.857z"/>
	<path fill="#00FF00" d="M30.609,21.313c0.648-0.998,1.112-1.719,1.779-2.75c-1.161,0.389-1.945,0.652-2.729,0.919
		c0.027,0.083,0.055,0.165,0.083,0.247c0.313,0.063,0.627,0.125,0.918,0.182C30.646,20.297,30.634,20.643,30.609,21.313z"/>
	<path fill="#00FF00" d="M18.98,30.446c0.61-0.996,1.061-1.732,1.676-2.745c-1.143,0.431-1.925,0.725-2.972,1.12
		c0.587,0.135,0.913,0.211,1.23,0.283C18.933,29.473,18.95,29.81,18.98,30.446z"/>
	<path fill="#FF0000" d="M22.437,20.432c-0.158-0.688-0.334-1.57-0.573-2.435c-0.068-0.247-0.279-0.524-0.501-0.647
		c-0.783-0.436-1.598-0.809-2.182-1.099c0.149,0.667,0.346,1.582,0.566,2.491c0.036,0.145,0.157,0.309,0.283,0.38
		C20.904,19.613,21.79,20.082,22.437,20.432z"/>
	<path fill="#FF0000" d="M28.212,12.403c-0.631-0.483-1.286-0.936-1.811-1.313c0.093,0.673,0.183,1.497,0.335,2.308
		c0.04,0.215,0.236,0.434,0.419,0.577c0.578,0.448,1.184,0.861,1.692,1.225c-0.085-0.664-0.177-1.488-0.311-2.307
		C28.508,12.716,28.363,12.515,28.212,12.403z"/>
	<path fill="#FF0000" d="M13.736,24.725c0.675,0.271,1.362,0.511,1.916,0.716c-0.213-0.566-0.459-1.287-0.763-1.987
		c-0.088-0.205-0.303-0.406-0.51-0.498c-0.731-0.322-1.482-0.599-2.09-0.838c0.277,0.646,0.608,1.456,0.979,2.247
		C13.345,24.525,13.558,24.655,13.736,24.725z"/>
</g>
</svg>
